<svg width="1600" height="1600" viewBox="0 0 1200 1200" xmlns="http://www.w3.org/2000/svg"><path d="M626.26 496.314c50.805 0 92.212-39.83 92.212-88.696 0-48.867-41.408-88.696-92.212-88.696s-92.211 39.829-92.211 88.696c.142 48.914 41.407 88.696 92.211 88.696zm277.422 254.804c-13.547-36.754-29.671-75.16-47.752-114.393-53.476-115.724-176.12-115.215-233.753-98.564-7.584 1.744-67.644 13.995-136.767-19.272-25.76-12.435-30.149-50.383-30.53-71.902-.621-26.292-20.513-48.501-47.37-52.86-3.436-.46-6.489-.689-9.303-.689-15.028 0-29.816 6.01-40.406 16.426-10.638 10.463-16.362 24.183-15.98 38.774 1.241 56.623 18.461 131.69 93.07 167.625 28.72 13.765 58.724 23.493 89.636 28.906l9.303 180.057c.142 1.194 0 2.34-.143 3.397l-50.328 260.59c-2.814 14.223.381 28.77 8.92 40.746 8.539 12.114 21.516 20.096 36.4 22.805 3.53.597 6.82.917 10.256.917 27.239 0 50.661-18.675 55.575-44.509L636.967 888.1l44.84 232.457c5.01 26.062 28.814 44.417 55.576 44.417 3.435 0 6.822-.23 10.256-.918 26.762-4.818 46.273-27.118 46.273-53.32 0-3.302-.381-6.698-.954-10.093l-50.184-261.226c-.238-1.514-.238-2.34-.238-2.57v-.46l4.627-165.373a108.204 104.078 0 015.485 10.095c16.841 36.295 31.867 72.133 44.7 106.777 10.017 27.118 40.406 41.94 69.266 33.956 14.884-4.222 27.478-14.316 34.443-27.624 7.012-13.72 8.014-28.999 2.623-43.086z"/><path d="M573.636 190.812c4.77 2.57 10.494 2.478 15.122-.229l36.493-21.153-14.407 91.175c-1.24 7.892 4.39 15.28 12.594 16.426.716.23 1.575.23 2.338.23 7.347 0 13.691-5.185 14.787-12.206l19.178-121.597c.86-5.506-1.717-11.059-6.487-14.087-4.866-3.074-11.116-3.304-16.125-.367l-41.025 23.86V62.056c0-7.983-6.727-14.454-15.027-14.454-8.3 0-15.027 6.47-15.027 14.454V178.33c0 5.185 2.91 10.003 7.585 12.48zm-126.407 37.58a15.25 15.25 0 0011.496 6.561c4.628.368 9.302-1.514 12.356-4.955l22.23-24.548 35.54 83.969c2.338 5.644 7.919 9.04 13.93 9.04 1.813 0 3.769-.367 5.63-1.055 7.68-3.074 11.353-11.38 8.3-18.815l-44.7-105.72c-1.954-4.679-6.248-7.982-11.496-8.81-5.152-.825-10.4.919-13.787 4.681l-25.14 27.853-53-79.061c-4.53-6.7-13.786-8.58-20.75-4.36-6.965 4.36-8.92 13.262-4.533 19.961zm248.631 70.02c3.674 0 7.347-1.285 10.256-3.855l76.565-68.737c4.15-3.761 5.725-9.406 4.15-14.683-1.574-5.277-6.248-9.176-11.83-10.093-13.071-2.112-27.716-4.956-39.07-7.526 17.936-15.142 48.992-39.92 77.805-62.129 6.488-4.955 7.442-14.087 2.338-20.328-5.153-6.24-14.646-7.157-21.134-2.248-101.37 78.372-101.37 82.365-101.37 90.577 0 14.317 15.027 18.08 43.697 23.954l3.291.687-54.955 49.327c-6.106 5.414-6.344 14.546-.716 20.42a15.333 15.333 0 0010.972 4.634z" fill="red"/></svg>