<?xml version="1.0" encoding="UTF-8" standalone="no"?>
<svg
   width="1200pt"
   height="1200pt"
   version="1.1"
   viewBox="0 0 1200 1200"
   id="svg3"
   sodipodi:docname="noun-punch-hand-5029016.svg"
   inkscape:version="1.4 (e7c3feb1, 2024-10-09)"
   xmlns:inkscape="http://www.inkscape.org/namespaces/inkscape"
   xmlns:sodipodi="http://sodipodi.sourceforge.net/DTD/sodipodi-0.dtd"
   xmlns="http://www.w3.org/2000/svg"
   xmlns:svg="http://www.w3.org/2000/svg">
  <defs
     id="defs3" />
  <sodipodi:namedview
     id="namedview3"
     pagecolor="#ffffff"
     bordercolor="#000000"
     borderopacity="0.25"
     inkscape:showpageshadow="2"
     inkscape:pageopacity="0.0"
     inkscape:pagecheckerboard="0"
     inkscape:deskcolor="#d1d1d1"
     inkscape:document-units="pt"
     inkscape:zoom="0.630625"
     inkscape:cx="800"
     inkscape:cy="800"
     inkscape:window-width="1440"
     inkscape:window-height="1186"
     inkscape:window-x="791"
     inkscape:window-y="168"
     inkscape:window-maximized="0"
     inkscape:current-layer="svg3" />
  <path
     style="fill:#ffffff;fill-opacity:1;stroke-width:0.75"
     d="m 212.88404,254.50942 -28.54311,233.10208 178.39446,190.28741 -27.35382,486.42219 549.45493,10.7037 -22.59667,-449.55404 88.00792,-60.65411 44.004,-84.44004 L 1016.8484,132.0119 941.92268,89.197223 855.1041,92.765115 769.47473,45.193261 680.2775,63.032706 602.97324,27.353815 516.1546,58.27552 436.47176,16.650148 352.03172,46.382557 317.54212,243.80575 Z"
     id="path4" />
  <path
     d="m1031.6 124.25-8.2383-8.9453v-0.003906c-20.25-22.055-46.434-37.793-75.41-45.332-28.977-7.5352-59.512-6.543-87.941 2.8516l-24.941-19.281c-39.57-30.48-92.352-37.652-138.62-18.832l-13.523 5.5195-1.0703-0.87109h-0.003906c-21.648-17.41-48.074-27.832-75.777-29.883s-55.379 4.3633-79.355 18.395l-11.418 6.7344v-0.003906c-22.773-20.375-51.758-32.473-82.258-34.336-30.504-1.8672-60.746 6.6133-85.832 24.062l-2.3555 1.5898c-3.7969 2.6406-6.4062 6.668-7.2617 11.215l-36.16 191.77-93.203 6.2031h-0.003906c-4.1055 0.27734-7.9883 1.9766-10.973 4.8125-2.9883 2.8359-4.8867 6.625-5.375 10.715l-28.051 235.42c-0.62891 5.2578 1.1328 10.52 4.8008 14.336l174 180.93-31.09 486.39c-0.30469 4.793 1.3555 9.5039 4.5977 13.047 3.2422 3.543 7.7891 5.6094 12.59 5.7305l555.38 13.523h0.42188c4.8398 0.007812 9.4727-1.9766 12.809-5.4805 3.3398-3.5039 5.0898-8.2266 4.8516-13.059l-22.281-442.6 42.848-31.488h-0.003906c28.113-20.551 51.25-47.152 67.707-77.844 16.457-30.691 25.809-64.688 27.367-99.477l18.41-393.03c0.22266-4.707-1.4453-9.3125-4.6367-12.781zm-49.051 404.15c-1.3203 29.523-9.2539 58.375-23.219 84.422-13.961 26.047-33.594 48.629-57.449 66.074l-50.523 37.113h0.003906c-4.7812 3.5117-7.4805 9.1914-7.1836 15.113l21.812 433.11-518.04-12.652 30.418-475.77-0.003907-0.003906c0.32031-4.9453-1.457-9.7969-4.8945-13.371l-173.59-180.52 25.332-212.56 71.32-4.707-15.219 146.17c-0.48438 4.6602 0.90234 9.3203 3.8516 12.953 2.9531 3.6367 7.2266 5.9531 11.887 6.4336 0.625 0.058593 1.2461 0.09375 1.8477 0.09375v0.003906c4.3633-0.003906 8.5742-1.625 11.816-4.5469 3.2383-2.9258 5.2812-6.9453 5.7344-11.289l17.305-166.38 37.23-197.19c20.039-12.691 43.922-17.883 67.422-14.652 23.5 3.2344 45.098 14.68 60.965 32.309 2.7266 3.0352 6.4141 5.0312 10.445 5.6562 4.0273 0.62109 8.1484-0.17188 11.664-2.2422l23.164-13.656c17.773-10.395 38.285-15.148 58.82-13.629 20.535 1.5195 40.121 9.2422 56.172 22.141l9.1914 7.4375v0.003906c2.4609 1.9883 5.4062 3.2812 8.5352 3.7461 3.1289 0.46094 6.3242 0.074219 9.2539-1.1211l23.188-9.4766c34.613-14.039 74.074-8.6641 103.67 14.125l32.574 25.109c4.7773 3.6914 11.113 4.6875 16.797 2.6367l4.7773-1.7305c22.332-8.1523 46.582-9.4922 69.68-3.8594 23.094 5.6367 44.004 17.992 60.074 35.512l3.25 3.5312z"
     id="path1"
     style="fill:#000000;fill-opacity:1" />
  <path
     d="m463.62 796.29c-3.0703-0.58984-6.2461 0.0625-8.832 1.8164-2.5859 1.7539-4.3672 4.4609-4.9531 7.5273l-34.82 181.97c-0.58594 3.0742 0.082031 6.2578 1.8477 8.8438 1.7656 2.582 4.4922 4.3555 7.5703 4.9297 0.73047 0.12891 1.4688 0.19531 2.2109 0.19922 5.6445-0.007813 10.488-4.0156 11.551-9.5586l34.758-181.95c0.58984-3.0625-0.0625-6.2383-1.8125-8.8242-1.75-2.5859-4.457-4.3672-7.5195-4.957z"
     id="path2" />
  <path
     d="m533.53 883.39c-3.0586-0.61719-6.2422 0.007813-8.8398 1.7344-2.6016 1.7305-4.4102 4.4219-5.0273 7.4844l-19.281 95.922c-0.61719 3.0625 0.007813 6.2422 1.7383 8.8438 1.7266 2.5977 4.418 4.4062 7.4805 5.0234 0.77344 0.14844 1.5625 0.22656 2.3555 0.22266 5.5898-0.003906 10.406-3.9414 11.523-9.418l19.281-95.945c0.61719-3.0625-0.011718-6.2461-1.7422-8.8477-1.7305-2.6016-4.4258-4.4062-7.4883-5.0195z"
     id="path3" />
</svg>
