<?xml version="1.0" encoding="UTF-8"?>
<svg width="1200pt" height="1200pt" version="1.1" viewBox="0 0 1200 1200" xmlns="http://www.w3.org/2000/svg">
 <path d="m939.71 441.05c-0.60938 51.609-23.391 100.45-62.484 134.11-39.094 33.656-90.75 48.891-141.84 41.812 18.984-38.531 15.422-84.328-9.2344-119.44l-109.08-159.37h0.046876c29.484-40.828 74.906-67.266 124.97-72.703 50.109-5.4844 100.17 10.453 137.81 43.922s59.344 81.328 59.812 131.68zm16.125 165.89v0.046875c-33.422 38.25-77.391 65.766-126.37 79.078-48.984 13.312-100.83 11.859-149.02-4.2188-24.891 25.734-87.797 86.391-120.98 119.81l0.046874 0.046875c-38.531 40.359-92.531 62.156-148.26 59.906-8.9531 41.297-2.6719 84.422 17.672 121.45 20.391 37.031 53.438 65.484 93.094 80.062s83.25 14.344 122.76-0.70312c77.156-26.297 160.87-26.297 238.08 0 52.594 20.391 111.8 13.922 158.81-17.297 46.969-31.266 75.797-83.344 77.391-139.74 0-120.79-61.5-233.29-163.22-298.4zm-874.82 152.06 146.29 145.97c48.938-51.188 103.31-117.8 184.74-120.61v0.046876c32.484 1.5 64.266-9.9375 88.312-31.875 26.25-28.828 146.58-141.05 166.69-170.53 5.9062-12.984 4.5938-28.125-3.4688-39.938l-135.94-198.56v0.046874c-6.7969-10.266-17.859-16.922-30.141-18.047-12.234-1.125-24.328 3.4219-32.859 12.281l-59.531 59.906 74.109 74.484c86.531 89.109-41.672 213.14-127.13 140.95-14.531 29.109-55.594 56.906-81.422 24.188h0.046876c-12.75-17.016-9.5156-41.109 7.2656-54.141 6.1875-4.2188 10.266-10.922 11.109-18.375 0.89062-7.4062-1.4531-14.859-6.4688-20.438h-0.42188c-14.531-15.141-14.297-39.141 0.5625-53.953 14.859-14.859 38.859-15.094 54-0.5625v0.375l61.828 61.453c3.1875 3.8906 8.0156 6.1875 13.031 6.1875 5.0625 0 9.8438-2.2969 13.078-6.1875 3.8438-3.1875 6.0938-7.9688 6-12.938-0.09375-5.0156-2.4375-9.75-6.375-12.797l-100.64-101.39c-0.42188 0-0.75-0.32812-0.75-0.75-18.328-21.328-33.562 10.641-49.172 22.266-37.266 36.094-79.875 77.203-76.828 117.89 5.1562 85.219-62.484 144.89-115.97 195.1zm355.45-473.44c7.2188-7.1719 11.25-16.969 11.25-27.141 0-10.219-4.0312-19.969-11.25-27.188l-42.281-42.234c-15.047-14.953-39.328-14.906-54.281 0.046875-14.953 15-15 39.281-0.046876 54.281l42.281 42.281c15.047 14.953 39.328 14.953 54.328-0.046875zm165.52 0 42.281-42.281-0.046874 0.046875c14.531-15.094 14.297-39-0.51563-53.812-14.766-14.766-38.672-15-53.766-0.51562l-42.281 42.281c-14.484 15.047-14.25 39 0.51562 53.766 14.812 14.812 38.719 15.047 53.812 0.51562zm-71.531-60.656v-59.812c0-21.188-17.203-38.391-38.391-38.391-21.234 0-38.438 17.203-38.438 38.391v59.812c0.32812 21 17.438 37.828 38.438 37.828s38.062-16.828 38.391-37.828z"/>
</svg>
