<svg width="1600" height="1600" viewBox="0 0 1200 1200" xmlns="http://www.w3.org/2000/svg"><path d="M267.94 312.14c46.828 5.766 80.109 48.422 74.297 95.25-5.766 46.828-48.422 80.109-95.25 74.344-46.828-5.813-80.109-48.469-74.344-95.297 5.812-46.828 48.469-80.109 95.297-74.297M507.47 643.22l-55.688-27.844c-6-3-11.859-7.688-17.156-13.781-15.609-17.766-41.391-38.625-76.547-61.922-27.141-18-58.547-27.469-90.938-27.469h-68.156c-13.547 0-25.688 2.625-36.234 7.781-55.312 27.234-114.84 117.61-155.06 188.63-8.062 14.297-9.844 30.703-5.062 46.453 4.687 15.61 15.703 28.688 30.375 35.86 29.297 14.624 65.062 2.765 79.78-26.626l19.782-39.609v84.844l-67.641 281.63c-4.313 18.141-.61 37.078 10.312 52.22s27.703 24.702 46.312 26.296l1.453.14c1.78.141 3.703.235 5.53.235 29.626 0 55.782-20.766 62.298-50.062l42-191.76 8.156 175.22c.234 33.703 27.703 61.078 61.453 61.078 16.688 0 32.391-6.61 44.062-18.609 11.625-12 17.859-27.844 17.391-44.53l-11.391-421.31 42.938 34.311c1.078.844 2.156 1.547 3.469 2.063l62.297 26.766c25.219 10.78 54.938 1.219 69-22.312 7.922-13.22 9.937-29.156 5.625-43.781-4.36-14.72-14.672-27.047-28.36-33.891zM1196.6 760.08c-13.312-37.547-29.156-76.781-46.922-116.86-52.547-118.22-173.06-117.7-229.69-100.69-7.453 1.781-66.469 14.297-134.39-19.688-25.312-12.703-29.625-51.469-30-73.453-.61-26.859-20.156-49.547-46.547-54-3.375-.469-6.375-.703-9.14-.703-14.767 0-29.298 6.14-39.704 16.78-10.453 10.689-16.078 24.704-15.703 39.61 1.22 57.844 18.141 134.53 91.453 171.24 28.22 14.062 57.703 24 88.078 29.53l9.141 183.94c.14 1.22 0 2.391-.14 3.47l-49.454 266.21c-2.765 14.53.375 29.39 8.766 41.625 8.39 12.375 21.141 20.53 35.766 23.297 3.469.61 6.703.937 10.078.937 26.766 0 49.781-19.078 54.609-45.469l41.719-225.84 44.062 237.47c4.922 26.625 28.312 45.375 54.609 45.375 3.375 0 6.703-.234 10.078-.937 26.297-4.922 45.469-27.703 45.469-54.47 0-3.374-.375-6.843-.938-10.311l-49.312-266.86c-.234-1.547-.234-2.39-.234-2.625v-.47l4.547-168.94a106.323 106.323 0 015.39 10.313c16.548 37.078 31.313 73.688 43.923 109.08 9.843 27.703 39.703 42.844 68.062 34.688 14.625-4.313 27-14.625 33.844-28.22 6.89-14.015 7.875-29.624 2.578-44.015z"/><path d="M924 499.78c49.922 0 90.609-40.688 90.609-90.609S973.921 318.562 924 318.562s-90.609 40.688-90.609 90.609c.14 49.969 40.688 90.609 90.609 90.609z"/><path d="M550.55 148.22l-78.844-.469 49.312-109.78a14.608 14.608 0 00-1.078-14.062c-2.625-4.219-7.313-6.703-12.375-6.703l-122.48-.047c-6.703 0-12.47 4.453-14.297 10.922l-50.766 189.47c-1.219 4.453-.234 9.14 2.531 12.844 2.766 3.61 7.078 5.766 11.625 5.766h75.61l-27.235 180c-1.078 6.937 3 13.688 9.61 16.078 1.687.61 3.374.844 4.921.844 5.063 0 9.938-2.625 12.61-7.22l153.14-255.37c2.765-4.546 2.765-10.218.234-14.765-2.438-4.5-7.219-7.406-12.516-7.5z" fill="#fc0"/><path d="M872.29 187.69c4.688 2.625 10.312 2.531 14.859-.234l35.859-21.61-14.156 93.142c-1.219 8.062 4.313 15.609 12.375 16.78.703.235 1.547.235 2.297.235 7.219 0 13.453-5.297 14.53-12.469l18.845-124.22c.844-5.625-1.688-11.297-6.375-14.391-4.781-3.14-10.922-3.375-15.844-.375l-40.312 24.375V56.157c0-8.156-6.61-14.766-14.766-14.766s-14.766 6.61-14.766 14.766v118.78c0 5.297 2.86 10.219 7.453 12.75zM748.08 226.08c2.531 3.844 6.703 6.375 11.297 6.703 4.547.375 9.14-1.547 12.141-5.062l21.844-25.078 34.922 85.78c2.297 5.766 7.781 9.235 13.688 9.235 1.781 0 3.703-.375 5.531-1.078 7.547-3.14 11.156-11.625 8.156-19.22l-43.922-108c-1.921-4.78-6.14-8.155-11.297-9-5.062-.843-10.219.938-13.547 4.782l-24.703 28.453-52.078-80.766c-4.453-6.844-13.547-8.765-20.39-4.453-6.844 4.453-8.766 13.547-4.454 20.391zM992.39 297.61c3.61 0 7.219-1.313 10.078-3.938l75.234-70.219c4.078-3.843 5.625-9.609 4.078-15s-6.14-9.374-11.625-10.311c-12.844-2.157-27.234-5.063-38.39-7.688 17.624-15.469 48.14-40.781 76.452-63.469 6.375-5.062 7.313-14.391 2.297-20.766-5.063-6.375-14.391-7.312-20.766-2.297-99.609 80.062-99.609 84.141-99.609 92.531 0 14.625 14.766 18.47 42.938 24.47l3.234.702-54 50.391c-6 5.531-6.234 14.86-.703 20.86 3 3.187 6.938 4.734 10.781 4.734z" fill="red"/></svg>