<?xml version="1.0" encoding="UTF-8"?>
<svg width="1200pt" height="1200pt" version="1.1" viewBox="0 0 1200 1200" xmlns="http://www.w3.org/2000/svg">
 <path d="m405.56 147.71c0.79688-4.4531 1.1719-8.9062 1.1719-13.266s-0.42188-8.8125-1.1719-13.266l-1.7812-10.266h393.89l-1.7812 10.266c-0.79688 4.4531-1.1719 8.9062-1.1719 13.266s0.42188 8.8125 1.1719 13.266l1.7812 10.266h-393.89zm-87.281 531.32c2.7656 2.7656 6.4688 4.3125 10.406 4.3125s7.6406-1.5469 10.406-4.3125l117.66-117.66c32.766-32.766 32.766-86.016 0-118.78-15.844-15.844-36.938-24.562-59.391-24.562s-43.547 8.7188-59.391 24.562c-2.4844 2.4844-5.7656 3.8438-9.2812 3.8438s-6.7969-1.3594-9.2812-3.8438c-15.844-15.844-36.938-24.609-59.391-24.609s-43.547 8.7188-59.391 24.609c-32.766 32.766-32.766 86.016 0 118.78zm11.812-494.26c27.75 0 50.344-22.594 50.344-50.344s-22.594-50.344-50.344-50.344-50.344 22.594-50.344 50.344 22.594 50.344 50.344 50.344zm509.26 583.18c-7.875 0-15.609 2.8125-22.453 8.1094-31.453 24.469-101.34 79.922-132.47 105.28l-0.65625 0.51562-0.51563 0.60938c-27.703 32.906-56.484 39.516-93.938 39.516-9.9375 0-20.297-0.46875-31.219-0.9375-13.406-0.60938-28.594-1.2656-45.422-1.2656-5.7188 0-11.391 0.09375-16.875 0.23438h-0.46875c-7.125 0-12.844-5.625-13.031-12.797-0.1875-7.2656 5.5312-13.312 12.797-13.5 5.8125-0.14062 11.766-0.23438 17.719-0.23438 17.109 0 32.578 0.65625 46.219 1.2656h0.28125c11.719 0.51562 21.844 0.98438 31.078 0.98438 31.219 0 52.219-5.0625 74.016-31.641 4.3125-5.2969 5.1562-14.859 2.1094-23.812-1.5-4.4531-6.2812-15.047-17.719-17.672-56.062-12.984-116.91-15.703-158.06-15.703-19.969 0-34.781 0.65625-41.812 1.0312l-1.5 0.09375-150.66 62.391 68.156 164.48 5.1094 0.60938c39.609 4.7812 115.36 13.219 171.94 19.453 4.5469 0.51562 9.1875 0.75 13.781 0.75 30.422 0 59.859-10.922 82.828-30.703 58.266-50.156 163.55-141.24 213.66-187.45 21.047-19.406 25.969-42.094 12.609-57.891-6.3281-7.5-15.609-11.766-25.406-11.766zm-571.97 100.41c-6.6562-16.078-22.266-26.484-39.703-26.484-5.625 0-11.156 1.0781-16.359 3.2812-10.594 4.4062-18.844 12.656-23.203 23.25-4.4062 10.594-4.4062 22.266 0 32.859 0.46875 1.0781 77.953 188.21 77.953 188.21 6.6562 16.078 22.266 26.484 39.703 26.484 5.625 0 11.156-1.0781 16.406-3.2812 10.594-4.4062 18.844-12.656 23.203-23.203 4.4062-10.594 4.4062-22.266 0-32.859-0.42187-0.98438-77.953-188.21-77.953-188.21zm354.14-196.69v-487.36h-56.719v487.36zm249.79-486.89c27.75 0 50.344-22.594 50.344-50.344s-22.594-50.344-50.344-50.344-50.344 22.594-50.344 50.344 22.594 50.344 50.344 50.344zm128.06 257.86c-15.844-15.844-36.938-24.562-59.391-24.562-22.453 0-43.547 8.7188-59.391 24.562-2.4844 2.4844-5.7656 3.8438-9.2812 3.8438-3.5156 0-6.7969-1.3594-9.2812-3.8438-15.844-15.844-36.938-24.609-59.391-24.609-22.453 0-43.547 8.7188-59.391 24.609-32.766 32.766-32.766 86.016 0 118.78l117.66 117.66c2.7656 2.7656 6.4688 4.3125 10.406 4.3125s7.6406-1.5469 10.406-4.3125l117.66-117.66c32.766-32.766 32.766-86.016 0-118.78zm-688.74-234.1c-7.1719-1.875-13.969-4.7812-20.156-8.5781l-88.875 208.5c9.0938-5.7188 18.938-10.031 29.297-12.844zm39.375-0.09375 80.578 188.39c10.781 3.375 20.953 8.4375 30.234 14.953l-90.656-212.06c-6.1875 3.7969-12.938 6.75-20.109 8.6719zm391.69 200.02c9.0938-5.7188 18.938-10.031 29.297-12.844l79.734-187.08c-7.1719-1.875-13.969-4.7812-20.156-8.5781zm148.4-200.02 80.578 188.39c10.781 3.375 20.953 8.4375 30.234 14.953l-90.656-212.06c-6.1875 3.7969-12.938 6.75-20.109 8.6719z"/>
</svg>
