<?xml version="1.0" encoding="UTF-8"?>
<svg width="1200pt" height="1200pt" version="1.1" viewBox="0 0 1200 1200" xmlns="http://www.w3.org/2000/svg">
 <path d="m488.47 880.11c-2.6211-0.50391-5.3359 0.054687-7.543 1.5508-2.2109 1.4961-3.7344 3.8086-4.2383 6.4297l-29.77 155.51c-1.043 5.457 2.5312 10.727 7.9883 11.77 0.625 0.12109 1.2617 0.17969 1.9023 0.18359 4.8203-0.007813 8.9609-3.4336 9.8672-8.1719l29.77-155.5c1.043-5.4531-2.5273-10.723-7.9766-11.773z"/>
 <path d="m548.22 954.57c-2.6172-0.52734-5.3359 0.007813-7.5586 1.4844-2.2227 1.4766-3.7656 3.7773-4.293 6.3945l-16.477 81.98c-1.0938 5.4453 2.4336 10.746 7.875 11.844 0.66406 0.13672 1.3359 0.20312 2.0117 0.19922 4.7773-0.003906 8.8945-3.3672 9.8516-8.0469l16.477-82.004c0.52734-2.6172-0.007813-5.3359-1.4844-7.5586-1.4805-2.2227-3.7852-3.7695-6.4023-4.293z"/>
 <path d="m968.88 401.31-7.043-7.6367c-17.297-18.859-39.676-32.32-64.445-38.762-24.766-6.4414-50.867-5.5898-75.164 2.4531l-21.316-16.48v0.003907c-33.051-25.445-76.938-31.922-115.93-17.105l15.996-241.07c1.6953-27.422-11.07-53.73-33.656-69.367-22.59-15.633-51.711-18.32-76.777-7.0781-25.062 11.238-42.426 34.77-45.773 62.039l-32.004 245.2c-19.32-12.309-41.844-18.645-64.746-18.219-22.906 0.42969-45.176 7.6016-64.027 20.625l-2.0117 1.3672c-3.2422 2.2578-5.4688 5.6953-6.207 9.5781l-30.934 163.89-79.656 5.3008h-0.003906c-3.5078 0.23438-6.8281 1.6914-9.3789 4.1133s-4.1758 5.6602-4.5938 9.1562l-23.973 201.21c-0.53906 4.4922 0.96875 8.9922 4.1055 12.254l148.29 154.2-38.301 294.39v0.003906c-0.55078 4.2422 0.72266 8.5195 3.5078 11.766 2.7812 3.2461 6.8125 5.1602 11.09 5.2656l474.69 11.59h0.36328c4.0742 0 7.9766-1.6445 10.82-4.5664 2.8398-2.918 4.3828-6.8633 4.2695-10.938l-7.043-257.79 36.812-27.031c24.027-17.566 43.805-40.301 57.871-66.527 14.066-26.23 22.066-55.281 23.406-85.012l15.734-335.89v-0.003906c0.19531-4.0312-1.2344-7.9688-3.9727-10.934zm-41.914 345.42c-1.1367 25.23-7.9219 49.887-19.852 72.148-11.934 22.258-28.707 41.559-49.09 56.473l-43.18 31.711c-3.9883 2.9297-6.2852 7.6289-6.1484 12.574l6.7695 249.8-442.05-10.793 37.082-284.95c0.59375-4.543-0.91406-9.1133-4.0938-12.414l-148.35-154.27 21.652-181.67 60.957-4.0234-13.012 124.92c-0.41406 3.9844 0.76953 7.9688 3.293 11.078 2.5195 3.1094 6.1758 5.0898 10.16 5.5039 0.53125 0.050781 1.0664 0.082031 1.5781 0.082031v-0.003906c3.7305 0 7.3281-1.3867 10.098-3.8867 2.7695-2.4961 4.5156-5.9336 4.9023-9.6445l14.789-142.2 31.82-168.53c16.957-10.668 37.105-15.086 56.969-12.496 19.867 2.5898 38.207 12.023 51.863 26.684 2.6133 2.8164 6.1992 4.5352 10.031 4.8008 3.8359 0.26562 7.625-0.94141 10.598-3.375 2.9766-2.4336 4.9102-5.9062 5.4102-9.7188l35.543-272.31c2.1094-16.715 12.777-31.117 28.145-38.012 15.371-6.8945 33.223-5.2812 47.109 4.2578 13.883 9.5391 21.793 25.625 20.871 42.445l-17.555 264.96c-0.34766 5.1953 2.0117 10.203 6.2344 13.246 4.2266 3.0469 9.7227 3.6953 14.539 1.7227l19.82-8.0469c29.574-12.027 63.312-7.4297 88.59 12.07l27.848 21.469c4.0938 3.1602 9.5195 4.0039 14.379 2.2344l4.0234-1.4688c19.086-6.9648 39.812-8.1133 59.555-3.2969 19.738 4.8203 37.605 15.383 51.34 30.359l2.7773 3.0195z"/>
</svg>
