<?xml version="1.0" encoding="UTF-8"?>
<svg width="1200pt" height="1200pt" version="1.1" viewBox="0 0 1200 1200" xmlns="http://www.w3.org/2000/svg">
 <path d="m1031.6 124.23c-19.969-25.016-47.094-43.34-77.75-52.531-30.66-9.1875-63.391-8.8047-93.828 1.1016l-24.941-19.281c-21.539-16.305-47.242-26.203-74.156-28.559-26.91-2.3555-53.941 2.9297-77.984 15.246-23.523-19.051-52.617-29.906-82.867-30.922-30.254-1.0156-60.008 7.8672-84.758 25.293-23.133-20.668-52.641-32.801-83.625-34.379-30.98-1.582-61.574 7.4844-86.691 25.695-3.8086 2.6406-6.4258 6.6719-7.2852 11.227l-36.266 191.75-93.203 6.1914h-0.003906c-4.1055 0.27734-7.9883 1.9766-10.973 4.8125-2.9883 2.8359-4.8867 6.625-5.375 10.715l-28.051 235.42c-0.62891 5.2578 1.1328 10.52 4.8008 14.336l174 180.94-31.102 486.41c-0.30469 4.7969 1.3555 9.5078 4.6016 13.051 3.2461 3.543 7.793 5.6094 12.598 5.7266l555.38 13.512c4.8984 0.082031 9.6133-1.8594 13.031-5.3711 3.418-3.5078 5.2383-8.2734 5.0234-13.168l-22.281-442.6 42.848-31.488c28.117-20.547 51.262-47.148 67.719-77.84 16.461-30.691 25.816-64.688 27.379-99.48l18.41-393.03c0.23047-4.7109-1.4453-9.3203-4.6484-12.781zm-593.48 867.77c-1.2891 6.3164-7.418 10.418-13.75 9.2031-6.332-1.2148-10.508-7.2969-9.3672-13.641l34.832-181.95c1.2891-6.3125 7.4219-10.418 13.75-9.1992 6.332 1.2148 10.508 7.293 9.3672 13.637zm85.34 1.1758h0.003906c-1.4336 6.2109-7.543 10.152-13.793 8.8984-6.2461-1.2578-10.359-7.2539-9.2812-13.535l19.27-95.91c1.2852-6.375 7.4922-10.504 13.867-9.2188 6.375 1.2852 10.5 7.4922 9.2188 13.867z"/>
</svg>
