<svg width="1600" height="1600" viewBox="0 0 1200 1200" xmlns="http://www.w3.org/2000/svg"><path d="M600 0C269.15 0 0 269.15 0 600c0 154 58.801 300.65 165.6 412.95 6.2 6.45 15.301 9.25 23.949 7.05 8.7-2.1 15.602-8.648 18.102-17.25 20.75-70.448 87.25-126.1 173.6-145.2 12.25-2.698 20.602-14.101 19.5-26.647-.055-.352-.703-5.504-.754-5.903 0-28.449 16.102-54.102 42-66.898 6.398-3.148 11.148-8.949 13.051-15.8C469.85 687.948 519.196 650 574.998 650c52.352 0 99.45 33.5 117.25 83.398 3.5 9.95 13 16.602 23.551 16.602h9.2c41.351 0 75 33.648 75 75s-33.649 75-75 75c-13.802 0-25 11.2-25 25v125c0 36.5-12.052 71.25-35.853 103.25-6 8.149-6.601 19.051-1.351 27.75a24.961 24.961 0 0021.449 12.2c1.199 0 2.449-.102 3.648-.25 291.96-43 512.11-297.9 512.11-592.95 0-330.85-269.15-600-600-600zM375 500c-41.352 0-75-33.648-75-75s33.648-75 75-75 75 33.648 75 75-33.648 75-75 75zm450 0c-41.352 0-75-33.648-75-75s33.648-75 75-75 75 33.648 75 75-33.648 75-75 75z"/><path d="M725 850H625c-13.801 0-25-11.199-25-25s11.199-25 25-25h100c13.801 0 25 11.199 25 25s-11.199 25-25 25zM525 850h-50c-13.801 0-25-11.199-25-25s11.199-25 25-25h50c13.801 0 25 11.199 25 25s-11.199 25-25 25z"/><path d="M575 700c-41.352 0-75 33.648-75 75v125.95c-22.852-.8-49.602-.95-50-.95-110.3 0-200 67.302-200 150s89.699 150 200 150 200-67.3 200-150V775c0-41.351-33.648-75-75-75z"/></svg>