<?xml version="1.0" encoding="UTF-8"?>
<svg width="1200pt" height="1200pt" version="1.1" viewBox="0 0 1200 1200" xmlns="http://www.w3.org/2000/svg">
 <path d="m628.34 48.973-10.754-0.59375c-6.5391-0.32031-12.941 1.9531-17.816 6.3242-4.8711 4.3711-7.8281 10.488-8.2188 17.023l-1.9297 35.441 60.129 3.2695 1.9492-35.441c0.32422-6.5391-1.9492-12.945-6.3242-17.82s-10.496-7.8203-17.035-8.2031z"/>
 <path d="m968.88 401.33c-17.07-21.383-40.258-37.047-66.469-44.902-26.207-7.8555-54.188-7.5273-80.203 0.94141l-21.328-16.5c-33.043-25.43-76.91-31.902-115.89-17.102l16.004-241.04c1.8867-27.531-10.832-54.031-33.488-69.785-22.656-15.754-51.922-18.445-77.074-7.0938-25.152 11.352-42.492 35.078-45.668 62.492l-31.992 245.16c-19.668-12.484-42.621-18.801-65.906-18.141-23.289 0.66406-45.844 8.2773-64.77 21.863-3.2852 2.2578-5.5312 5.7344-6.2383 9.6562l-30.984 163.88-79.676 5.2305c-3.5039 0.25781-6.8125 1.7227-9.3633 4.1406-2.5469 2.4219-4.1797 5.6484-4.6172 9.1367l-23.941 201.2h-0.003906c-0.51563 4.5 0.99609 9 4.125 12.273l148.29 154.22-38.328 294.36c-0.58984 4.2461 0.69141 8.543 3.5195 11.77 2.7578 3.2773 6.7852 5.2148 11.066 5.332l474.63 11.57v-0.003907c4.1289 0.078125 8.1172-1.5273 11.039-4.4492 2.9219-2.9258 4.5273-6.9102 4.4531-11.043l-7.043-257.84 36.82-26.961c24.031-17.57 43.812-40.316 57.883-66.555 14.066-26.242 22.062-55.305 23.398-85.047l15.695-335.9c0.21094-4.0039-1.207-7.9219-3.9336-10.863zm-502.18 646.03c-1.0469 5.4609-6.3203 9.0352-11.777 7.9883-5.4609-1.0469-9.0352-6.3203-7.9883-11.781l29.727-155.5c0.50391-2.6211 2.0273-4.9336 4.2344-6.4336 2.2109-1.4961 4.9258-2.0547 7.5469-1.5547 5.457 1.0508 9.0352 6.3242 7.9883 11.781zm72.934 1.0078h0.003907c-1.0977 5.4453-6.3984 8.9766-11.848 7.8828-5.4453-1.0977-8.9766-6.3984-7.8828-11.848l16.469-81.977c1.0977-5.4492 6.4023-8.9766 11.852-7.8789 5.4492 1.0977 8.9727 6.4023 7.875 11.852zm113.27-726.82c-0.28125 2.6523-1.6016 5.0859-3.6797 6.7617-2.0742 1.6797-4.7305 2.4609-7.3828 2.1797l-87.41-7.8047h-0.003906c-2.7148-0.19922-5.2383-1.4883-6.9844-3.5781-1.75-2.0898-2.5742-4.7969-2.2891-7.5078 0.28125-2.7109 1.6562-5.1875 3.8008-6.8672 2.1445-1.6797 4.8789-2.418 7.5781-2.0469l87.41 7.8047c2.6562 0.27734 5.0898 1.5977 6.7734 3.6719 1.6797 2.0742 2.4688 4.7305 2.1875 7.3867zm14.145-134.03c-0.27734 2.6562-1.6016 5.0938-3.6758 6.7734-2.0742 1.6797-4.7344 2.4648-7.3867 2.1797l-87.41-7.8164h-0.003906c-5.3789-0.73828-9.1953-5.6172-8.6289-11.016 0.56641-5.3984 5.3164-9.375 10.734-8.9805l87.41 7.8164c5.5234 0.57422 9.5352 5.5195 8.9609 11.043zm2.2422-65.941h0.003906c-0.30469 5.5469-5.0469 9.8008-10.594 9.4961l-80.207-4.3164c-5.5508-0.30078-9.8008-5.043-9.5-10.59l2.4844-45.48 0.003906-0.003906c0.66016-11.867 6-22.992 14.852-30.926 8.8516-7.9375 20.488-12.039 32.359-11.406 15.508-1.3945 30.82 4.2695 41.688 15.422 7.9766 8.8359 12.082 20.5 11.387 32.383z"/>
</svg>
