<svg width="1600" height="1600" viewBox="0 0 1200 1200" xmlns="http://www.w3.org/2000/svg"><path d="M600 112.5c10.359 0 18.75-8.39 18.75-18.75v-75C618.75 8.391 610.36 0 600 0s-18.75 8.39-18.75 18.75v75c0 10.359 8.39 18.75 18.75 18.75zM300 337.5h75c10.359 0 18.75-8.39 18.75-18.75S385.36 300 375 300h-75c-10.359 0-18.75 8.39-18.75 18.75s8.39 18.75 18.75 18.75zM806.26 318.74c0 10.359 8.39 18.75 18.75 18.75h75c10.359 0 18.75-8.39 18.75-18.75 0-10.359-8.39-18.75-18.75-18.75h-75c-10.359 0-18.75 8.39-18.75 18.75zM343.03 261.74c1.781.563 3.563.75 5.344.75 8.062 0 15.562-5.25 17.953-13.406 23.578-79.125 84.844-140.44 163.97-163.97 9.937-2.953 15.562-13.406 12.656-23.297-2.953-9.937-13.406-15.562-23.297-12.656-91.312 27.188-162.05 97.922-189.24 189.24a18.694 18.694 0 0012.656 23.297zM669.66 85.125c79.125 23.578 140.44 84.844 163.97 163.97 2.438 8.156 9.89 13.406 17.953 13.406 1.781 0 3.563-.281 5.344-.75 9.937-2.953 15.562-13.406 12.656-23.297-27.188-91.312-97.922-162.05-189.24-189.24a18.694 18.694 0 00-23.297 12.656 18.694 18.694 0 0012.656 23.297zM833.63 388.4c-23.578 79.125-84.844 140.44-163.97 163.97-9.938 2.953-15.562 13.406-12.656 23.297 2.438 8.156 9.89 13.406 17.953 13.406 1.781 0 3.563-.281 5.344-.75 91.312-27.188 162.05-97.922 189.24-189.24a18.694 18.694 0 00-12.656-23.297 18.694 18.694 0 00-23.297 12.656zM543 575.72a18.694 18.694 0 00-12.656-23.297c-79.125-23.578-140.44-84.844-163.97-163.97-2.953-9.938-13.406-15.562-23.297-12.656-9.938 2.953-15.562 13.406-12.656 23.297 27.188 91.312 97.922 162.05 189.24 189.24 1.781.563 3.563.75 5.344.75 8.062 0 15.562-5.25 17.953-13.406zM1028 1170.6L747.69 764.2l-58.031 72.516a18.738 18.738 0 01-14.625 7.031c-5.719 0-11.109-2.578-14.625-7.031l-60.375-75.469-60.375 75.469a18.738 18.738 0 01-14.625 7.031c-5.719 0-11.109-2.578-14.625-7.031L452.378 764.2l-280.31 406.4c-3.937 5.766-4.406 13.219-1.172 19.359 3.235 6.187 9.656 10.031 16.594 10.031h825c6.938 0 13.36-3.844 16.594-10.031 3.234-6.188 2.813-13.594-1.172-19.359z"/><path d="M621.19 619.74V376h93.75c10.36 0 18.75-8.39 18.75-18.75v-75c0-10.358-8.39-18.75-18.75-18.75h-93.75c0-10.358-8.39-18.75-18.75-18.75s-18.75 8.392-18.75 18.75v356.26c37.17.466 1.18.451 37.5-.02z" fill="#fc0"/><path d="M562.386 618.74c-6.188 0-11.906 3-15.47 8.109l-72.468 105.09 50.438 62.98 60.375-75.468a18.738 18.738 0 0114.625-7.032c5.718 0 11.109 2.578 14.625 7.032l60.375 75.468 50.437-63-72.469-105.089c-2.46-3.592-6.128-6.1-10.246-7.295l-45.9.179-28.273-.974z"/></svg>