<svg width="1600" height="1600" viewBox="0 0 1200 1200" xmlns="http://www.w3.org/2000/svg"><path d="M1044.3 240.91C984.745 101.17 832.01 4.43 664.24.2c-133.17-3.633-261.52 43.215-352.4 127.82-75.371 70.172-146.08 198.45-123.21 314.26a278.68 278.68 0 008.387 30.086c7.527 23.566 14.633 45.82 4.691 62.684-.133.219-.129.21-62.297 108.93h-.004a81.61 81.61 0 00-17.32 52.883c3.188 42.168 41.816 50.848 64.895 56.027 2.711.613 5.383 1.207 7.965 1.84a44.45 44.45 0 017.23 2.226 84.077 84.077 0 01-3.933 31.512c-1.852 5.559-10.113 33.918 9.347 46.473v-.004c.465.32.954.606 1.465.844 5.028 2.883 6.32 8.211 3.84 15.867h-.004a44.198 44.198 0 00-.594 37.406 27.817 27.817 0 0018.668 13.328c2.024 1.164 5.5 3.7 4.864 7.113-14.203 47.297-11.902 107.79 37 136.5 39.02 22.898 86.516 18.098 128.43 13.871 12.422-1.254 24.156-2.433 35.062-2.863h.004c.625-.016 1.246-.07 1.863-.164a79.795 79.795 0 0133.664 1.5c3.95 5.656 44.266 65.02 39.312 121.28a18.737 18.737 0 004.316 13.688 18.735 18.735 0 0012.727 6.629c.559.047 1.114.074 1.668.074 9.618 0 405.85-71.438 415.36-75.531a18.715 18.715 0 0010.023-10.273 18.743 18.743 0 00-.18-14.352 701.411 701.411 0 01-51.714-219.51 63.88 63.88 0 0112.945-44.23c153.68-200.15 201.53-422.65 128-595.19z"/><path d="M898.056 397.982l-8.832-38.426-41.242 8.414h.004a18.75 18.75 0 01-17.789-5.937 18.751 18.751 0 0110.286-30.813l59.18-12.066a18.76 18.76 0 0122.035 14.172l8.675 37.745 59.523-14.457v.004a18.75 18.75 0 018.86 36.437l-77.98 18.942h-.004a18.779 18.779 0 01-22.715-14.016zM839.048 566.092a18.775 18.775 0 01-26.528.621l-57.562-54.883a18.73 18.73 0 01-5.808-13.41 18.728 18.728 0 015.586-13.504l28.023-27.629-44.855-40.172v-.004a18.755 18.755 0 1125.047-27.922l59.715 53.484a18.73 18.73 0 016.23 13.512 18.724 18.724 0 01-5.582 13.797l-28.46 28.06 43.57 41.534-.005.004a18.734 18.734 0 015.809 13.125 18.751 18.751 0 01-5.18 13.387zM708.108 181.292l-41.03 45.758 19.882 21.742a18.727 18.727 0 014.915 12.789 18.731 18.731 0 01-5.102 12.715l-54.023 57.328.004.004a18.765 18.765 0 01-17.961 5.402 18.757 18.757 0 01-9.36-31.109l42.09-44.668-19.593-21.422v-.004a18.733 18.733 0 01-4.914-12.559 18.73 18.73 0 014.789-12.605l52.363-58.398v-.004a18.75 18.75 0 0117.824-5.84 18.756 18.756 0 0110.117 30.872zM706.655 567.102a18.761 18.761 0 01-26.488-1.445l-52.363-58.398v-.004a18.73 18.73 0 01-4.789-12.605 18.734 18.734 0 014.914-12.56l19.594-21.421L605.433 416v-.004a18.757 18.757 0 019.356-31.11 18.76 18.76 0 0117.96 5.403l54.023 57.328v.004a18.745 18.745 0 01.188 25.504l-19.883 21.742 41.031 45.758a18.74 18.74 0 01-1.453 26.477zM558.015 331.282h.004a18.769 18.769 0 01-26.496 1.445l-59.715-53.484a18.734 18.734 0 01-.648-27.309l28.465-28.059-43.57-41.535h-.004a18.773 18.773 0 01-5.82-13.137 18.755 18.755 0 0131.72-14l57.561 54.884a18.744 18.744 0 01.227 26.918l-28.023 27.629 44.855 40.172a18.746 18.746 0 011.449 26.477zM556.57 417.102l-44.855 40.172 28.023 27.629v.004a18.728 18.728 0 015.586 13.504 18.727 18.727 0 01-5.813 13.41l-57.562 54.883a18.757 18.757 0 11-25.9-27.133l43.571-41.535-28.465-28.059.004-.004a18.736 18.736 0 01.649-27.309l59.715-53.484a18.758 18.758 0 0126.504 1.418 18.758 18.758 0 01-1.457 26.504zM445.82 367.801l-31.344-7.59-8.68 37.754v.004a18.771 18.771 0 01-8.43 11.75 18.773 18.773 0 01-14.284 2.266l-77.98-18.941a18.75 18.75 0 018.856-36.437l59.522 14.456 8.676-37.746v-.004a18.753 18.753 0 018.426-11.746 18.777 18.777 0 0114.28-2.27l49.802 12.067h-.004a18.751 18.751 0 019.148 31.157 18.749 18.749 0 01-17.988 5.281zM737.9 304.805l44.855-40.172-28.023-27.629a18.762 18.762 0 01-5.59-13.508c.043-5.07 2.14-9.91 5.813-13.41l57.562-54.883a18.771 18.771 0 0113.395-5.207c4.98.113 9.707 2.2 13.145 5.805a18.745 18.745 0 01-.64 26.535l-43.57 41.535 28.46 28.059.004.004a18.745 18.745 0 015.582 13.797 18.72 18.72 0 01-6.234 13.512l-59.715 53.484a18.745 18.745 0 01-13.547 4.785 18.766 18.766 0 01-12.957-6.203 18.755 18.755 0 01-4.762-13.555 18.753 18.753 0 016.223-12.95z" fill="red"/></svg>