<?xml version="1.0" encoding="UTF-8"?>
<svg width="1200pt" height="1200pt" version="1.1" viewBox="0 0 1200 1200" xmlns="http://www.w3.org/2000/svg">
 <path d="m675.14 284.29 24.844-117.14c4.6875-21.469 10.219-36.703 21.141-45.234h-0.046875c11.859-7.875 26.484-10.5 40.312-7.2188 42.609 5.2969 67.219 44.625 74.391 89.859 8.2969 52.922-8.5312 85.922-14.391 133.55 4.6875 46.219 0 96 21.844 127.78 13.312 19.078 36 31.219 77.531 31.219l161.39 0.046876c39.516 1.5938 70.688 34.078 70.688 73.641 0 39.516-31.172 72-70.688 73.594h-22.312c40.734-0.46875 74.156 32.203 74.625 72.984 0.46875 40.734-32.203 74.156-72.938 74.625h-20.531c39.516 1.5938 70.688 34.078 70.688 73.641 0 39.516-31.172 72-70.688 73.594h-21c20.062-0.79687 39.562 6.6094 54 20.484 14.484 13.875 22.641 33.094 22.641 53.156s-8.1562 39.234-22.641 53.109c-14.438 13.922-33.938 21.328-54 20.484h-336c-61.688 0-121.78-19.5-171.71-55.688-16.266-12.047-36.047-18.469-56.297-18.234h-38.062v-441.61c24.797-2.0625 47.719-13.922 63.75-33 43.875-53.766 92.016-103.92 144-150 22.219-21 43.453-73.781 49.922-103.69zm-399.84 773.86h77.391c20.672 0 37.5-16.734 37.547-37.453v-457.4c-0.046876-20.719-16.828-37.5-37.547-37.594h-77.391c0.98437 4.7344 1.5 9.5625 1.5469 14.438v503.86c-0.046874 4.7812-0.5625 9.6094-1.5469 14.297zm-231-518.16v504c0 20.672 16.734 37.453 37.406 37.453h129.84c9.9375 0 19.453-3.9375 26.484-10.969s10.969-16.547 10.969-26.484v-504c0-20.719-16.734-37.5-37.453-37.547h-129.84c-20.672 0.046875-37.406 16.828-37.406 37.547z" fill-rule="evenodd"/>
</svg>
