<svg width="1600" height="1600" viewBox="0 0 1200 1200" xmlns="http://www.w3.org/2000/svg"><path d="M750 787.5c0 82.828-67.172 150-150 150s-150-67.172-150-150 67.172-150 150-150 150 67.172 150 150" fill="#1a1a1a"/><path d="M468.74 431.26h262.5c82.688 0 150-67.312 150-150 0-76.688-57.891-140.16-132.28-148.97C740.147 57.899 676.726.01 599.99.01S459.83 57.901 451.02 132.29c-74.391 8.813-132.28 72.234-132.28 148.97 0 82.688 67.312 150 150 150zM618.74 581.26v-93.75c0-10.359-8.39-18.75-18.75-18.75-10.359 0-18.75 8.39-18.75 18.75v93.75c0 10.359 8.39 18.75 18.75 18.75 10.359 0 18.75-8.39 18.75-18.75zM543.74 600V487.5c0-10.359-8.39-18.75-18.75-18.75-10.359 0-18.75 8.39-18.75 18.75V600c0 10.359 8.39 18.75 18.75 18.75 10.359 0 18.75-8.39 18.75-18.75zM693.74 600V487.5c0-10.359-8.39-18.75-18.75-18.75-10.359 0-18.75 8.39-18.75 18.75V600c0 10.359 8.39 18.75 18.75 18.75 10.359 0 18.75-8.39 18.75-18.75zM768.74 637.5v-150c0-10.359-8.39-18.75-18.75-18.75-10.359 0-18.75 8.39-18.75 18.75v150c0 10.359 8.39 18.75 18.75 18.75 10.359 0 18.75-8.39 18.75-18.75zM806.26 487.5v300c0 10.359 8.39 18.75 18.75 18.75 10.359 0 18.75-8.39 18.75-18.75v-300c0-10.359-8.39-18.75-18.75-18.75-10.359 0-18.75 8.39-18.75 18.75zM356.26 487.5v300c0 10.359 8.39 18.75 18.75 18.75 10.359 0 18.75-8.39 18.75-18.75v-300c0-10.359-8.39-18.75-18.75-18.75-10.359 0-18.75 8.39-18.75 18.75zM468.74 637.5v-150c0-10.359-8.39-18.75-18.75-18.75-10.359 0-18.75 8.39-18.75 18.75v150c0 10.359 8.39 18.75 18.75 18.75 10.359 0 18.75-8.39 18.75-18.75z" fill="#4d4d4d"/><path d="M877.64 944.29c-26.531-33.844-62.531-59.016-108.66-75.656-30.281 62.906-94.688 106.41-169.03 106.41s-138.74-43.5-169.03-106.41c-46.125 16.688-82.125 41.859-108.66 75.656-53.062 67.688-59.859 162.19-59.859 236.95 0 10.359 8.39 18.75 18.75 18.75h637.5c10.359 0 18.75-8.39 18.75-18.75 0-74.719-6.797-169.22-59.859-236.95z" fill="#1a1a1a"/></svg>