<svg width="1600" height="1600" viewBox="0 0 1200 1200" xmlns="http://www.w3.org/2000/svg"><path d="M886.643 585.726c43.289 0 78.57-33.937 78.57-75.574s-35.282-75.574-78.57-75.574-78.57 33.937-78.57 75.574c.122 41.677 35.283 75.574 78.57 75.574zm236.378 217.107c-11.543-31.317-25.281-64.04-40.687-97.469-45.565-98.603-150.064-98.17-199.17-83.982-6.462 1.486-57.637 11.925-116.533-16.421-21.948-10.595-25.688-42.928-26.013-61.265-.53-22.402-17.478-41.325-40.362-45.039-2.927-.391-5.528-.586-7.926-.586-12.805 0-25.405 5.12-34.428 13.995-9.064 8.916-13.942 20.605-13.617 33.038 1.058 48.245 15.73 112.206 79.302 142.825 24.47 11.728 50.035 20.017 76.374 24.63l7.927 153.417c.12 1.018 0 1.995-.122 2.895l-42.883 222.036c-2.397 12.119.326 24.513 7.602 34.718 7.275 10.321 18.331 17.123 31.013 19.431 3.008.509 5.812.782 8.739.782 23.21 0 43.166-15.913 47.353-37.925l36.175-188.365 38.208 198.066c4.268 22.207 24.55 37.845 47.352 37.845 2.927 0 5.813-.195 8.74-.781 22.802-4.106 39.427-23.106 39.427-45.432 0-2.814-.326-5.707-.814-8.6l-42.76-222.578c-.202-1.29-.202-1.994-.202-2.19v-.392l3.943-140.906a92.195 88.68 0 014.673 8.601c14.35 30.926 27.153 61.46 38.087 90.98 8.535 23.106 34.428 35.735 59.018 28.932 12.682-3.597 23.413-12.198 29.347-23.537 5.975-11.69 6.829-24.709 2.236-36.712z"/><path d="M841.804 325.423c4.065 2.19 8.942 2.11 12.885-.195l31.094-18.025-12.275 77.687c-1.057 6.724 3.74 13.019 10.73 13.995.61.196 1.342.196 1.992.196 6.26 0 11.666-4.418 12.6-10.4l16.34-103.607c.733-4.692-1.463-9.422-5.527-12.003-4.146-2.619-9.47-2.815-13.739-.313l-34.955 20.33v-77.372c0-6.803-5.732-12.316-12.804-12.316-7.073 0-12.804 5.513-12.804 12.316v99.07c0 4.418 2.48 8.523 6.462 10.634zM734.1 357.443a12.993 12.993 0 009.796 5.59c3.942.313 7.925-1.29 10.527-4.222l18.942-20.917 30.282 71.546c1.991 4.81 6.747 7.703 11.869 7.703 1.544 0 3.21-.313 4.796-.899 6.544-2.619 9.673-9.696 7.072-16.03l-38.086-90.08c-1.666-3.987-5.324-6.801-9.796-7.506-4.39-.703-8.86.782-11.747 3.988l-21.42 23.732-45.158-67.364c-3.862-5.709-11.747-7.31-17.681-3.714-5.935 3.714-7.601 11.299-3.862 17.007zm211.847 59.66c3.13 0 6.26-1.095 8.739-3.284l65.237-58.568c3.536-3.205 4.878-8.014 3.536-12.51-1.341-4.497-5.324-7.82-10.08-8.6-11.138-1.8-23.615-4.224-33.29-6.413 15.283-12.902 41.744-34.014 66.294-52.937 5.528-4.222 6.342-12.003 1.992-17.32-4.39-5.317-12.479-6.099-18.007-1.916-86.373 66.777-86.373 70.179-86.373 77.177 0 12.198 12.804 15.405 37.233 20.41l2.804.585-46.825 42.029c-5.203 4.613-5.406 12.394-.61 17.399a13.064 13.064 0 009.349 3.948z" fill="red"/><path d="M324.957 38.745c-9.08-.032-16.486 7.578-16.579 17.067v30.831c-52.556 2.623-98.693 17.618-136.6 39.543l-35.636-37.244c-3.099-3.27-7.344-5.116-11.745-5.116-4.4 0-8.615 1.846-11.714 5.116-3.099 3.239-4.865 7.643-4.865 12.242 0 4.6 1.766 9.003 4.865 12.242l30.4 31.77c-43.353 32.742-72.019 74.582-81.995 113.541l.031.033a17.602 17.602 0 000 8.97c20.545 80.088 119.895 172.391 263.806 172.391 143.879 0 243.451-92.303 263.985-172.39h-.031a17.602 17.602 0 000-8.971c-10.041-39.155-39.015-81.256-82.775-114.094l29.904-31.252c3.098-3.238 4.865-7.643 4.865-12.242 0-4.599-1.767-9.003-4.865-12.242-3.1-3.239-7.313-5.084-11.714-5.084-4.401 0-8.615 1.846-11.714 5.084l-35.265 36.823c-37.775-21.666-83.607-36.499-135.76-39.122V55.81c-.124-9.489-7.53-17.1-16.61-17.067zm.062 145.868c41.307 0 75.145 35.43 75.145 78.603 0 43.17-33.84 78.533-75.145 78.533-41.306 0-75.146-35.365-75.146-78.533 0-43.17 33.84-78.603 75.146-78.603z"/></svg>