<svg width="1600" height="1600" viewBox="0 0 1200 1200" xmlns="http://www.w3.org/2000/svg"><path d="M640.854 13.008c-8.94.176-17.88 6.691-18.175 16.743l.085.145c-.284 4.21.892 8.375 3.512 12.03l51.778 69.024c8.866 12.766 30.522 7.222 32.168-8.17l2.249-15.259 22.2 29.637c14.474 18.78 42.635-2.439 28.753-21.649l-48.232-64.463c-8.865-12.765-30.52-7.223-32.168 8.17l-2.248 15.259-25.69-34.335c-3.5-5.063-8.867-7.238-14.232-7.132zM946.86 63.494c-3.888-.048-7.804 1.195-11.083 4.087l-66.757 54.668c-3.417 2.922-5.553 6.687-6.283 10.842l-.117.12c-3.38 15.731 16.888 27.953 29.175 17.07l33.144-27.208-1.46 15.355c-2.075 15.34 17.632 25.892 29.29 15.612l62.226-51.085c18.067-15.34-4.215-42.668-22.754-27.886l-28.635 23.478 1.46-15.353c1.492-11.026-8.269-19.58-18.206-19.7zM473.834 308.448c-9.15.22-16.757 7.406-17.427 16.614l-4.188 54.66c-1.876 16.404 19.98 25.921 30.838 13.858 2.84-2.926 4.738-6.766 5.003-11.212l4.188-54.66.001.067c.78-9.957-6.742-18.563-16.564-19.277a18.126 18.126 0 00-1.85-.05zm-91.32 19.538a17.825 17.825 0 00-10.139 2.615c-8.543 5.172-11.15 16.3-6.001 24.697l28.469 46.847c8.04 14.42 31.347 9.41 33.133-6.722.601-4.034-.095-8.26-2.473-12.027l-28.47-46.847.04.053c-3.233-5.34-8.794-8.36-14.558-8.616zm-67.132 64.567c-12.368-.339-23.11 13.81-16.727 25.926 1.764 3.677 4.71 6.787 8.79 8.573l49.84 22.83-.062-.021c9.072 4.174 19.748.094 23.815-8.876 4.174-9.072.092-19.748-8.877-23.815l-49.838-22.833c-2.304-1.16-4.65-1.72-6.94-1.784zm38.205 81.567a17.87 17.87 0 00-3.587.467l-53.413 12.343c-16.215 3.113-18.765 26.814-4.008 33.57 3.642 1.835 7.873 2.498 12.195 1.422l53.413-12.341-.063.02c9.734-2.231 15.698-11.982 13.444-21.568-1.954-8.518-9.662-14.149-17.981-13.913zM228.678 852.93c-7.138.29-13.7 4.872-16.197 11.946-3.372 9.4 1.62 19.683 10.906 22.958l51.629 18.433c15.33 6.13 30.268-12.449 21.489-26.1-2.075-3.51-5.28-6.352-9.5-7.778l-51.628-18.433.064.016a17.88 17.88 0 00-5.329-1.042c-.48-.02-.958-.02-1.434 0zm47.612 79.321a17.32 17.32 0 00-4.765.756l-52.69 15.13.061-.023c-9.603 2.74-15.048 12.79-12.293 22.245 2.74 9.603 12.79 15.048 22.245 12.293l52.69-15.129c16.03-3.96 17.332-27.762 2.24-33.733-2.333-1.026-4.872-1.583-7.488-1.539zm27.639 54.636c-5.188-.014-10.333 2.208-13.868 6.473l-35.15 42.066c-11.053 12.265 1.213 32.709 17.058 29.192 4.01-.733 7.786-2.758 10.583-6.223l35.15-42.07-.037.055c6.415-7.653 5.29-19.026-2.293-25.31a17.82 17.82 0 00-11.443-4.183zm54.337 25.704v.001c-9.98-.41-18.3 7.424-18.65 17.266l-2.158 54.78c-1.267 16.462 20.927 25.162 31.33 12.704 2.73-3.03 4.483-6.937 4.583-11.389l2.16-54.778.002.066c.41-9.979-7.425-18.3-17.267-18.65z" fill="red"/><path d="M761.46 134.144c-159.14 1.546-214.69 209.998-78.468 290.628-16.688 17.766-27.141 40.454-30 64.69-25.688 20.155-48.61 33.936-59.532 38.06-22.312-15.703-49.218-49.452-62.39-70.31-19.312-30.845-60.14-40.22-90.938-20.86-30.844 19.312-40.219 60.14-20.859 90.938 5.156 11.766 96.234 140.39 168.24 133.08 22.922 0 46.546-6.702 69.608-17.296l2.063 58.218c-61.688-3.468-106.78 5.298-134.16 26.157-47.062 35.859-184.785 133.537-196.316 172.907-5.931 48.819 5.931 55.32 27.758 73.05 42.842 19.72 60.419 3.908 78.545-8.664 46.267-27.062 147.672-119.763 168.441-130.893 11.391-3.14 54-3.234 121.45 9 9.47 43.922 25.312 112.92 40.453 155.53 18.61 52.453 68.626 132.61 74.157 141.61 13.078 20.767 35.53 33.234 60.14 33.234 54.234 1.312 90.141-63.234 60-108.61l-.05-.013c-18.142-28.78-50.532-85.22-60.704-113.62-11.859-33.376-25.688-93-33.61-129.61 3.141-6.375 4.923-12.61 5.766-19.312 2.531.234 5.063.468 7.688.375 31.922.468 61.078-25.218 64.781-57.233l5.86-46.22c3-26.298 6.468-60.375 6.702-89.297.141-3 0-7.688-.234-11.157.14-9.14-1.453-17.53-2.86-24.843-7.312-37.22-39.938-66.938-74.156-87.47-3.609-24.608-15.374-47.53-33.14-64.78 129.94-83.766 71.296-286.22-84.235-287.29zm.003 36.595c58.365.047 116.713 39.89 119.948 119.39 0 49.687-29.86 93.47-76.22 111.61-6.468 2.531-10.92 8.624-11.39 15.608-.468 6.938 3.235 13.547 9.375 16.922 12.938 7.078 23.297 17.625 30.375 30-16.547-6.844-34.078-12.938-53.625-18.844-9.469-2.86-19.547 2.531-22.453 12.14-2.86 9.47 2.531 19.548 12.14 22.454 39.939 12.703 67.69 22.078 103.691 45.375 18.703 12.141 39.375 33.704 44.156 55.22 1.22 6.235 2.297 12 2.297 18.14 0 3.141.375 6.938.235 9.938-.47 43.688-6.938 89.86-12.235 131.76-6.234 39.61-63.608 30.703-59.39-8.297 4.922-39.609 11.39-84.844 11.625-126 0-2.156-.14-4.312-.61-6.375 0-.468-.14-.843-.234-1.312-1.313-5.063-3.938-9.844-7.313-13.453-1.078-1.22-2.765-2.86-4.546-4.313-25.312-20.062-60.469-32.625-94.688-43.219-9.469-2.765-19.547 2.625-22.312 12.141-2.86 9.469 2.53 19.547 12.14 22.453 29.156 9 59.86 19.78 81.61 36.14-.47 38.86-6.703 81.845-11.391 119.161-3.375 23.156 6.61 45.376 23.625 59.532-.938 4.687-.469 9.843-1.547 13.922-1.922 6.609-8.625 13.78-6.14 21.609 9.609 44.53 23.624 105.14 36.374 140.63 15 42.374 63.61 120 64.079 120.71 23.53 39.703-33.704 75.375-59.063 37.078l-.004-.108c-5.39-8.625-53.392-85.69-70.782-134.391-16.453-46.312-34.547-129.14-41.625-162.61-1.453-7.078-7.078-12.608-14.156-13.921-15-2.86-72.844-13.549-116.39-13.549-20.062.375-34.921 1.22-45.608 8.766-17.86 15.14-112.292 99.56-148.893 121.19-37.444 35.074-78.251 26.132-70.692-21.538 38.33-43.432 153.255-124.493 184.661-148.493 22.547-17.156 67.313-23.156 129.47-17.39 10.454 1.218 20.299-8.063 19.69-18.61l-7.547-214.78c-.938-28.078 13.451-54.702 37.78-69.468 6-3.61 9.374-10.312 8.53-17.297-.702-6.938-5.39-12.844-12-15.141-48.468-16.688-81-62.298-81-113.39 3.305-79.686 61.688-119.436 120.053-119.39zM475.182 462.341c9.938 0 19.781 5.063 25.453 14.063 15.703 24.938 50.062 68.39 80.39 85.922 3.141 1.78 6.704 2.625 10.313 2.39 14.391-1.078 37.454-13.312 61.782-30.375l2.39 69.47c-22.78 12.233-46.312 20.766-68.156 20.766l.146-.138c-57.938-1.078-115.92-83.858-137.63-116.159-12.844-19.219 2.625-46.548 25.312-45.939z"/></svg>