<svg width="1600" height="1600" viewBox="0 0 1200 1200" xmlns="http://www.w3.org/2000/svg"><path d="M600 30C285.6 30 30 285.6 30 600s255.6 570 570 570 570-255.6 570-570S914.4 30 600 30zM304.8 454.8c0-52.8 43.2-96 96-96s96 43.2 96 96-43.2 96-96 96-96-43.2-96-96zM818.4 882c-7.2 3.6-14.4 4.8-20.4 4.8-18 0-34.8-9.6-43.2-26.4-28.8-58.8-87.6-96-154.8-96-66 0-126 37.2-154.8 96-12 24-39.6 33.6-63.6 21.6s-33.6-39.6-21.6-63.6c44.4-91.2 139.2-150 240-150 100.8 0 195.6 58.8 240 150C852.0 841.2 842.4 870 818.4 882zm-19.2-331.2c-52.8 0-96-43.2-96-96s43.2-96 96-96 96 43.2 96 96-43.2 96-96 96z"/></svg>