<svg width="1600" height="1600" viewBox="0 0 1200 1200" xmlns="http://www.w3.org/2000/svg"><path d="M600 30C285.6 30 30 285.6 30 600s255.6 570 570 570 570-255.6 570-570S914.4 30 600 30zM304.8 454.8c0-52.8 43.2-96 96-96s96 43.2 96 96-43.2 96-96 96-96-43.2-96-96zM840 768c-44.4 91.2-139.2 150-240 150s-195.6-58.8-240-150c-12-24-1.2-52.8 21.6-63.6 24-12 52.8-1.2 63.6 21.6 28.8 58.8 87.6 96 154.8 96 67.2 0 126-37.2 154.8-96 12-24 39.6-33.6 63.6-21.6C842.4 716.4 852 745.2 840 768zm-40.8-217.2c-52.8 0-96-43.2-96-96s43.2-96 96-96 96 43.2 96 96-43.2 96-96 96z"/></svg>