<svg width="1600" height="1600" viewBox="0 0 1200 1200" xmlns="http://www.w3.org/2000/svg"><path d="M600 30C285.6 30 30 285.6 30 600s255.6 570 570 570 570-255.6 570-570S914.4 30 600 30zM400.8 358.8c52.8 0 96 43.2 96 96 0 52.8-43.2 96-96 96-52.8 0-96-43.2-96-96 0-52.8 43.2-96 96-96zm398.4 0c52.8 0 96 43.2 96 96 0 52.8-43.2 96-96 96-52.8 0-96-43.2-96-96 0-52.8 43.2-96 96-96zM434.0 744.4c5.7-.057 11.4.834 16.5 2.9 1.1-.391 147.0 54.7 302.5 1.1l3.4-1.2h.002c25.0-8.6 52.4 4.8 59.9 30.1 9.7 24.6-3.7 52.0-28.6 60.6l-3.4 1.2c-189.5 65.3-360.5-.164-367.8-2.7-24.8-9.2-36.8-36.8-27.6-61.6 4.4-12.9 16.1-23.3 28.6-27.6 5.1-1.8 10.8-2.8 16.5-2.8z"/></svg>