<svg width="1600" height="1600" viewBox="0 0 1200 1200" xmlns="http://www.w3.org/2000/svg"><path d="M600 30C285.6 30 30 285.6 30 600s255.6 570 570 570 570-255.6 570-570S914.4 30 600 30zM400.8 358.8c52.8 0 96 43.2 96 96 0 52.8-43.2 96-96 96-52.8 0-96-43.2-96-96 0-52.8 43.2-96 96-96zm398.4 0c52.8 0 96 43.2 96 96 0 52.8-43.2 96-96 96-52.8 0-96-43.2-96-96 0-52.8 43.2-96 96-96zM601.4 744.4c54.9-.591 117.8 6.4 183.0 28.8l3.4 1.2c25.0 8.6 38.3 36.1 28.6 60.6-7.5 25.3-34.9 38.7-59.9 30.1l-.2.0-3.4-1.2c-155.4-53.6-301.3 1.5-302.5 1.1-10.3 4.1-22.8 3.6-33.0.05-12.5-4.3-24.1-14.7-28.6-27.6-9.2-24.8 2.8-52.3 27.6-61.6 4.7-1.7 80.0-30.5 184.8-31.6z"/></svg>