<svg width="1600" height="1600" viewBox="0 0 1200 1200" xmlns="http://www.w3.org/2000/svg"><path d="M1047.5 384.52c2.375 52.965-38.637 97.828-91.605 100.2-52.965 2.375-97.828-38.637-100.2-91.602-2.375-52.969 38.637-97.832 91.605-100.21 52.965-2.375 97.828 38.641 100.2 91.605" fill="teal"/><path d="M1160.4 612c-15.602-37.199-109.2-105.6-146.4-105.6H891.6c-16.801-3.602-68.398-38.398-82.801-55.199-1.2-19.199-1.2-74.398 1.2-121.2 1.198-24-16.802-44.398-40.802-45.602-24-1.2-44.398 16.801-45.602 40.801-2.398 45.602-6 124.8 1.2 151.2 9.601 37.199 84 91.199 134.4 109.2l-22.802 157.2c-30 4.8-70.8 10.801-93.602 15.602-22.8 3.602-70.8 13.199-123.6 258-6 26.398 10.801 52.801 37.2 58.801 3.601 1.2 7.199 1.2 10.8 1.2 22.801 0 43.2-15.603 48-38.399 16.801-78 42-158.4 57.602-184.8 22.801-3.601 55.2-9.601 79.2-13.199-24 30-40.802 58.801-33.603 91.2 9.602 43.198 64.801 102 97.2 132 9.601 8.398 21.601 13.198 33.601 13.198 13.2 0 26.398-4.8 36-15.602 19.2-19.199 18-51.602-2.398-69.602-27.602-26.398-55.199-58.8-64.801-74.398 7.2-12 24-31.199 36-43.199 26.398-30 51.602-57.602 60-87.602 9.602-36 20.398-134.4 25.199-174 16.801 12 33.602 25.2 40.801 33.602 2.398 13.2 3.602 52.801 2.398 90-1.199 24 18 43.2 40.801 44.398h1.2c22.8 0 42-18 43.199-40.8 3.609-37.196 3.609-99.595-7.192-127.2z"/><path d="M412.75 224.56c52.051 5.664 89.648 52.449 83.984 104.5-5.664 52.047-52.449 89.648-104.5 83.984-52.051-5.664-89.648-52.453-83.984-104.5 5.664-52.047 52.449-89.648 104.5-83.98" fill="red"/><path d="M633.6 502.8c10.801-2.398 16.801-13.199 14.398-22.801l-7.2-28.801c15.603-14.398 19.2-38.398 6-56.398-6-8.398-14.397-14.398-24-16.801l-58.8-240c-2.399-10.801-13.2-16.801-22.801-14.398-10.801 2.398-16.801 13.199-14.398 22.801l57.602 237.6-61.2 42c-21.601 14.398-46.8 22.801-72 21.602-27.601-1.2-50.397-4.8-66-10.801-4.8-1.2-12-4.8-20.397-8.398-22.801-9.602-39.602-16.801-51.602-19.2-12-2.398-22.801-6-138 24-25.2 6-48 20.399-66 39.603l-67.2 73.199c-15.601 18-14.397 44.398 2.4 61.199 8.398 7.199 19.198 10.8 28.8 10.8 12 0 22.801-4.8 31.2-14.397l67.198-73.2c6-7.199 14.398-12 24-14.397 7.2-2.399 14.398-3.602 20.398-4.801L158.396 648c-12 27.602-7.199 60 12 82.8l16.801 20.399-16.8 72c-4.798 19.199-14.399 37.199-26.399 52.8L58.8 984c-16.8 21.603-13.199 52.802 8.399 69.603 9.601 7.199 20.398 10.8 31.199 10.8 14.398 0 28.8-6 38.398-19.198l85.199-108c21.602-26.398 36-57.602 44.398-91.2 13.199 18 21.602 38.399 25.199 61.2l15.602 114c3.601 25.199 24 43.199 49.199 43.199h7.199c27.602-3.602 45.602-28.801 42-55.2l-15.602-114c-6-44.397-24-85.198-52.801-118.8l-37.191-44.401 106.8-200.4c13.199 2.398 26.398 3.601 40.8 3.601 43.2 2.399 87.603-10.8 124.8-36l34.802-24 3.601 13.2c2.399 8.398 9.602 14.397 19.2 14.397-.005 1.2 2.394 1.2 3.597 0z"/></svg>