<?xml version="1.0" encoding="UTF-8"?>
<svg width="1200pt" height="1200pt" version="1.1" viewBox="0 0 1200 1200" xmlns="http://www.w3.org/2000/svg">
 <path d="m600.1 114.38c-310.97 0-564 217.78-564 485.53 0 121.31 51.75 236.58 146.16 326.11-6.5625 20.391-15.938 39.656-28.031 57.375-15.375 22.547-29.719 36.75-39.656 45.141-14.625 12.281-33.422 22.781-54.422 29.203 9.7031 4.3125 19.734 7.6406 30.047 9.9375 44.25 10.031 89.953 0.046875 132.24-14.391 28.969-9.8906 56.578-23.203 82.312-39.703 88.969 47.156 190.74 72.047 295.4 72.047 310.87 0 563.76-217.92 563.76-485.76 0-267.71-252.94-485.53-563.76-485.53zm0 923.26c-101.58 0-200.06-25.219-284.86-72.984-3.6562-2.0625-7.7344-3.0938-11.812-3.0938-4.8281 0-9.6562 1.4531-13.734 4.3125-25.547 17.812-53.438 31.969-82.875 42-4.8281 1.6406-9.6562 3.1875-14.438 4.5938 0.46875-0.65625 0.9375-1.3594 1.4062-2.0625 17.906-26.297 30.938-55.266 38.812-86.156 2.1562-8.6719-0.60937-17.812-7.2656-23.766-91.125-81.656-141.28-188.44-141.28-300.61 0.046875-241.22 231.52-437.48 516.05-437.48 284.39 0 515.76 196.26 515.76 437.53 0 241.4-231.37 437.76-515.76 437.76zm-190.64-767.81c0.84375 2.1562-0.1875 4.5938-2.3438 5.4375-14.719 5.9531-29.25 12.656-43.172 19.969-0.60938 0.32812-1.3125 0.46875-1.9688 0.46875-1.5 0-3-0.79688-3.75-2.25-1.0781-2.0625-0.28125-4.5938 1.7812-5.6719 14.156-7.4062 28.922-14.25 43.922-20.297 2.25-0.89062 4.5938 0.1875 5.4375 2.3438zm-147.98 93.891c-1.5938-1.6875-1.5-4.3125 0.1875-5.9531 11.531-10.969 24-21.469 36.984-31.266 1.875-1.3594 4.5-1.0312 5.8594 0.84375 1.4062 1.875 1.0312 4.5-0.79688 5.9062-12.75 9.5625-24.938 19.875-36.281 30.656-0.79688 0.75-1.875 1.125-2.9062 1.125-1.125 0-2.25-0.42188-3.0469-1.3125zm-69.375 96.234c-0.65625 0-1.3125-0.14062-1.9688-0.46875-2.0625-1.0781-2.8594-3.6094-1.7812-5.6719 7.4062-14.156 15.984-28.078 25.5-41.344 1.3594-1.875 4.0312-2.2969 5.8594-0.9375 1.875 1.3594 2.3438 3.9844 0.98438 5.8594-9.2812 12.938-17.625 26.484-24.844 40.312-0.75 1.4062-2.25 2.25-3.75 2.25zm178.18 118.03c4.125 12.609-2.8125 26.156-15.422 30.234l-34.453 11.203 21.281 29.297c7.7812 10.734 5.4375 25.734-5.2969 33.516-4.2656 3.0938-9.1875 4.5938-14.062 4.5938-7.4062 0-14.719-3.4219-19.406-9.8906l-21.281-29.297-21.281 29.297c-4.6875 6.4688-12 9.8906-19.406 9.8906-4.875 0-9.8438-1.5-14.062-4.5938-10.688-7.7812-13.125-22.781-5.2969-33.516l21.281-29.297-34.453-11.203c-12.609-4.125-19.5-17.625-15.422-30.234 4.125-12.609 17.625-19.5 30.234-15.422l34.453 11.203v-36.234c0-13.266 10.734-24 24-24s24 10.734 24 24v36.234l34.5-11.203c12.562-4.0781 26.156 2.8125 30.234 15.422zm256.82-22.312h-16.641l0.42188-2.3438c2.3906-13.031-6.1875-25.547-19.266-27.938-12.984-2.4375-25.547 6.2344-27.938 19.266l-2.0156 11.062h-32.016l0.42188-2.3438c2.3906-13.031-6.1875-25.547-19.219-27.938-13.172-2.4375-25.547 6.2344-27.938 19.266l-2.0156 11.062h-26.438c-13.266 0-24 10.734-24 24s10.734 24 24 24h17.578l-4.9688 26.953h-24.422c-13.266 0-24 10.734-24 24s10.734 24 24 24h15.609l-0.42188 2.3438c-2.4375 13.031 6.1875 25.547 19.219 27.938 1.5 0.28125 2.9531 0.375 4.4062 0.375 11.344 0 21.469-8.0625 23.578-19.641l2.0156-11.062h32.016l-0.42188 2.3438c-2.3906 13.031 6.1875 25.547 19.266 27.938 1.4531 0.28125 2.9062 0.375 4.3594 0.375 11.344 0 21.469-8.0625 23.578-19.641l2.0156-11.062h27.516c13.266 0 24-10.734 24-24s-10.734-24-24-24h-18.656l4.9688-26.953h25.5c13.266 0 24-10.734 24-24s-10.734-24-24-24zm-79.219 74.953h-32.016l4.9688-26.953h32.016zm219.19-58.453c0 13.219-10.781 24-24 24-13.453 0-24-10.781-24-24s10.547-24 24-24c13.219 0 24 10.781 24 24zm0 84c0 13.219-10.781 24-24 24-13.453 0-24-10.781-24-24s10.547-24 24-24c13.219 0 24 10.781 24 24zm138-107.2-8.6719 75.141c-3.0469 28.125-45.094 27.844-48 0l-8.6719-75.141c-3.5156-48.281 68.906-48.328 65.344 0zm-8.6719 137.68c0 13.219-10.781 24-24 24s-24-10.781-24-24 10.781-24 24-24 24 10.781 24 24zm112.97-137.68-8.6719 75.141c-3.0469 28.125-45.094 27.844-48 0l-8.6719-75.141c-3.5156-48.281 68.906-48.328 65.344 0zm-8.8125 137.68c0 13.219-10.547 24-24 24-13.219 0-24-10.781-24-24 0-13.453 10.781-24 24-24 13.453 0 24 10.547 24 24z"/>
</svg>
