<?xml version="1.0" encoding="UTF-8"?>
<svg width="1200pt" height="1200pt" version="1.1" viewBox="0 0 1200 1200" xmlns="http://www.w3.org/2000/svg">
 <path d="m537.6 319.2-63.602 63.602s7.1992 6 14.398 13.199l51.602 54 63.602-63.602c18-18 18-48 0-67.199-18-18-48-18-66 0z"/>
 <path d="m711.6 811.2c-14.398-14.398-22.801-32.398-26.398-51.602l-1.1992-8.3984-8.3984 1.1992c-28.801 3.6016-57.602-6-78-26.398-13.199-13.199-21.602-30-25.199-48l-2.3984-9.6016-9.6016 2.3984c-9.6016 2.3984-19.199 3.6016-26.398 3.6016-20.398 0-39.602-7.1992-55.199-20.398l-14.398-10.801v18c-1.1992 78-43.199 139.2-78 168-9.6016 7.1992-22.801 7.1992-31.199-1.1992l-2.3984-1.1992c-8.3984-9.6016-6-25.199 3.6016-33.602 3.6016-3.6016 93.602-79.199 48-204l-3.6016-10.801-39.602 28.801c-10.801 7.1992-25.199 4.8008-32.398-4.8008-7.1992-10.801-4.8008-25.199 4.8008-32.398l58.801-43.199c9.6016-7.1992 22.801-6 31.199 3.6016l78 84c9.6016 9.6016 21.602 14.398 32.398 14.398 13.199 0 25.199-4.8008 33.602-13.199 18-18 18-46.801 1.1992-64.801l-115.2-120c-31.199-32.398-81.602-36-116.4-8.3984l-110.4 85.199c-46.801 36-75.602 90-79.199 148.8l-12 198c0 6-2.3984 10.801-7.1992 15.602l-72 72c-10.801 10.801-10.801 28.801 0 39.602l184.8 184.8c10.801 10.801 28.801 10.801 39.602 0l76.801-76.801c6-6 14.398-8.3984 21.602-6l34.801 8.3984c61.199 14.398 124.8-3.6016 169.2-48 4.8008-3.6016 8.3984-8.3984 13.199-13.199 45.602-45.602 105.6-110.4 154.8-180l7.1992-9.6016-10.801-3.6016c-14.422-9.6016-26.422-16.801-36.02-26.402z"/>
 <path d="m631.2 692.4c18 18 48 18 67.199 0l105.6-105.6c18-18 18-48 0-67.199-18-18-48-18-67.199 0l-105.6 105.6c-19.199 19.199-19.199 48 0 67.199z"/>
 <path d="m654 403.2-81.602 81.602 31.199 32.398c8.3984 9.6016 15.602 20.398 20.398 32.398l4.8008 13.199 92.398-92.398c18-18 18-48 0-67.199-19.195-19.199-49.195-19.199-67.195 0z"/>
 <path d="m889.2 700.8c18-18 18-48 0-67.199-19.199-19.199-48-19.199-67.199 0l-78 78c-18 18-18 48 0 67.199 18 18 48 18 67.199 0z"/>
 <path d="m1138.8 660c-57.602-44.398-94.801-81.602-105.6-130.8-9.6016-42 1.1992-79.199 39.602-138 6-9.6016 7.1992-21.602 2.3984-32.398-4.8008-10.801-14.398-16.801-26.398-18-74.398-7.1992-121.2-24-153.6-55.199-31.199-32.402-48-79.203-55.199-153.6-1.1992-10.801-8.3984-21.602-18-26.398-10.801-4.8008-22.801-3.6016-32.398 2.3984-49.199 33.602-85.199 48-139.2 39.602-51.602-8.3984-82.801-45.602-129.6-105.6-7.1992-9.6016-20.398-14.398-32.398-12s-21.602 12-25.199 22.801c-16.801 64.801-39.602 99.602-73.199 116.4-32.398 15.602-75.602 10.801-151.2-18-12-4.8008-25.199-1.1992-34.801 7.1992-8.3984 8.3984-12 22.801-7.1992 34.801 25.199 67.199 26.398 132 18 152.4-6 12-2.3984 26.398 7.1992 36 2.3984 2.3984 6 4.8008 9.6016 7.1992 16.801 7.1992 34.801 0 43.199-16.801 14.398-31.199 14.398-84 2.3984-140.4 49.199 13.199 98.398 16.801 142.8-4.8008 44.398-21.602 70.801-60 87.602-99.602 34.801 40.801 74.398 73.199 132 82.801 56.398 9.6016 99.602-1.1992 142.8-24 22.801 126 85.199 187.2 210 210-21.602 42-36 88.801-22.801 144 12 51.602 42 91.199 84 130.8-51.602 21.602-86.398 52.801-102 88.801-15.602 36-16.801 85.199-2.3984 141.6-56.398-12-109.2-12-141.6 2.3984-16.801 7.1992-24 26.398-15.602 43.199 7.1992 16.801 26.398 24 43.199 15.602 20.398-9.6016 85.199-8.3984 152.4 18 12 4.8008 25.199 1.1992 34.801-7.1992 8.3984-8.3984 12-22.801 7.1992-34.801-25.199-66-31.199-121.2-18-152.4 13.199-30 54-55.199 116.4-72 12-3.6016 20.398-13.199 22.801-25.199 2.3984-9.6016-2.4023-21.602-12-28.801z"/>
</svg>
