<svg width="1600" height="1600" viewBox="0 0 1200 1200" xmlns="http://www.w3.org/2000/svg"><path d="M598.25 315.12c71.375 0 129.38-58 129.38-129.38S669.505 56.36 598.25 56.36s-129.38 58-129.38 129.38 58.125 129.38 129.38 129.38zM600 457.25c48.5-51.125 122.38-69.375 188.38-48-9.5-37.875-43.625-66-84.375-66h-211.5c-41.125 0-75.625 28.75-84.75 67.25 67.125-23.5 142.62-5.625 192.12 46.875zM306.38 510.25h-48.875c-5.5 0-9.875 4.5-9.875 9.875v148.62c0 5.5 4.375 9.875 9.875 9.875h48.875c22.875 0 41.5-18.625 41.5-41.5v-85.375c0-22.875-18.625-41.5-41.5-41.5zM441.38 1143.8H587.5V997.18L441.38 828.8zM612.5 1143.8h146.12V828.92L612.5 997.42z"/><path d="M827.12 637v-85.375c0-25.125 14.125-46.75 34.75-58a154.846 154.846 0 00-26.875-30.25c-9.5-8.25-20-15-31.25-20.75h-.125c-4 0-7.375-2-9.625-4.875-62.125-26.625-135.5-10-180.12 41.25l-4 4.875c-2.375 2.875-5.875 4.625-9.5 4.625-3.625.5-7.25-1.5-9.625-4.375l-4.5-5.25c-46.625-53.625-123.5-69.25-187.12-38.125-.5.25-1 .625-1.625.875-11.5 5.75-22.375 13-32.25 21.625-10.375 9.125-19.375 19.25-26.875 30.25 20.625 11.375 34.75 33 34.75 58v85.375c0 19.5-8.625 37-22.125 49.125l34.125 39.5 215.12 247.88 249-287.38c-13.5-12.125-22.125-29.625-22.125-49.125z" fill="red"/><path d="M942.5 510.25h-48.875c-22.875 0-41.5 18.625-41.5 41.5v85.375c0 22.875 18.625 41.5 41.5 41.5H942.5c5.5 0 9.875-4.375 9.875-9.875V520.13c0-5.5-4.375-9.875-9.875-9.875z"/></svg>