<svg width="1600" height="1600" viewBox="0 0 1200 1200" xmlns="http://www.w3.org/2000/svg"><path d="M816.71 162.14c7.078-7.078 7.078-18.469 0-25.453-6.844-6.469-6.844-18.234 0-24.703 6.61-6.61 18.141-6.61 24.703 0 1.922 1.922 3.375 4.312 4.219 7.312 2.297 7.454 9.14 12.61 16.922 12.703 8.062-.14 14.766-4.78 17.297-12.14.937-2.626 2.297-4.922 3.937-6.61 6.844-6.844 18-6.844 24.703 0 6.844 6.844 6.844 18 0 24.703-1.78 1.781-3.937 3.14-6.703 4.078-7.312 2.531-12.234 9.61-12.14 17.391.14 7.781 5.296 14.625 12.702 16.922 2.86.844 5.39 2.297 7.313 4.219 6.844 6.844 6.844 17.859 0 24.703s-18 6.844-24.703 0c-7.078-6.938-18.47-7.078-25.453 0-19.22 22.688 18.609 42.469 37.78 41.062 44.157 1.312 70.454-54.609 41.063-87.844 37.688-49.688-25.312-112.78-75.141-75.141-33.234-29.391-89.062-3.375-87.938 41.062-1.078 20.062 18.469 56.766 41.156 37.781z" fill="#00f"/><path d="M865.08 156.71c-7.078-7.078-18.469-7.078-25.453 0l-56.156 56.156c-11.531 10.688-2.625 31.312 12.703 30.703 4.547 0 9.234-1.781 12.703-5.297l56.156-56.156c7.078-7.078 7.078-18.469 0-25.453zm-562.55 89.53c19.312 1.313 57-18.375 37.781-41.062-7.078-7.078-18.469-7.078-25.453 0-6.844 6.844-18 6.844-24.703 0a17.428 17.428 0 010-24.703c1.922-1.922 4.313-3.375 7.313-4.219 7.453-2.297 12.609-9.14 12.703-16.922.14-7.781-4.782-14.766-12.141-17.39-2.625-.938-4.922-2.298-6.704-4.079-6.843-6.844-6.843-18 0-24.703 6.844-6.844 18-6.844 24.703 0 1.782 1.781 3.141 3.938 4.078 6.61 2.532 7.312 9.938 11.858 17.297 12.14 7.782-.14 14.625-5.296 16.922-12.703.938-3 2.297-5.39 4.22-7.312 6.609-6.61 18.14-6.61 24.702 0 6.844 6.469 6.844 18.234 0 24.703-7.078 7.078-7.078 18.469 0 25.453 22.688 18.938 42.234-17.766 41.156-37.781 1.22-44.391-54.703-70.312-87.938-41.062-49.688-37.688-112.78 25.453-75.14 75.141-29.392 33.234-3.235 89.156 41.061 87.844z" fill="#00f"/><path d="M334.92 156.71c-7.078 7.078-7.078 18.469 0 25.453l56.156 56.156c3.469 3.469 8.156 5.297 12.703 5.297 15.375.61 24.234-20.062 12.703-30.703l-56.156-56.156c-7.078-7.078-18.469-7.078-25.453 0z" fill="#00f"/><path d="M698.06 363.84c113.39-90.844 48.703-277.55-98.062-277.55S388.548 273 501.936 363.84c-136.55 27.844-219.37 111.94-232.55 189.47-10.688 62.625 17.859 143.53 129.94 182.76 18.234 6.375 38.625 4.078 54.609-5.063-16.312 34.312-47.062 105.47-56.156 171.61-12 86.625 0 182.86.61 186.84 6.234 57.141 82.687 78.61 117.61 32.156 10.78-13.922 15.468-31.219 13.311-48.703 0-.843-10.312-84.375-.843-152.16 6.234-44.53 28.078-97.078 41.156-125.39h60.703c13.078 28.312 35.156 81 41.53 125.76 9.704 67.312 0 151.22-.14 151.92-5.625 38.157 27 75 65.531 74.063 33.234 0 61.312-24.939 65.391-57.939.469-4.078 12.234-101.3-.14-186.94-9.47-65.859-40.313-136.92-56.532-171.24 15.938 9.141 36.375 11.391 54.61 5.063 112.08-39.234 140.63-120.14 129.94-182.76-13.22-77.531-96-161.63-232.55-189.47zm90.562 338.29c-15.469 5.39-32.859-3.234-38.297-18.375-5.531-15.609 2.766-32.766 18.375-38.297 65.625-23.062 70.219-57.469 67.078-76.078-6.234-36.844-46.078-73.688-104.06-96.234-11.859-5.063-25.922 5.531-24.469 18.234.375 3.703.61 7.453.61 11.391v228.24c0 2.766.609 5.39 1.78 7.922 13.923 28.547 47.532 102.14 57.142 168.47 11.766 81 .609 173.53 0 177.47-2.063 16.219-16.781 28.219-33.47 26.062-16.077-1.688-28.452-17.531-26.061-33.47.468-3.608 10.453-89.53 0-161.53-7.782-53.765-34.312-114.7-49.547-146.39-3-6.233-9.375-10.218-16.22-10.218H557.86a17.913 17.913 0 00-16.22 10.219c-15.14 31.547-41.624 92.53-49.077 146.16-10.078 72.469.375 157.92.703 161.63.937 7.922-1.078 15.844-6 22.219-15.234 21.14-51 11.062-53.531-14.625 0-.938-12.141-95.531-.703-177.37 9.234-66.61 42.703-140.16 56.766-168.71 1.218-2.531 1.78-5.156 1.78-7.922v-228.24c0-3.938.235-7.688.61-11.391 1.453-12.844-12.609-23.297-24.469-18.234-57.844 22.547-97.688 59.391-104.06 96.234-3.14 18.469 1.313 53.062 67.078 76.078 15.61 5.531 23.86 22.547 18.375 38.297-5.297 15.234-22.78 23.766-38.297 18.375-90.938-31.781-114.61-94.547-106.31-142.78 12.47-73.781 104.3-155.06 255.24-167.39 19.312-1.453 22.547-29.531 3.938-35.156-50.297-15.703-84.141-61.781-84.141-114.47 0-66.141 53.859-120 120-120 136.92 2.39 165.84 191.63 35.859 234.47-18.61 5.531-15.47 33.844 3.937 35.156 150.94 12.469 242.63 93.609 255.24 167.39 8.156 48.141-15.469 110.86-106.31 142.78zm-44.625-84.516v-99.469c35.156 18.703 53.766 41.531 56.391 57.234 3.375 19.922-35.625 31.922-56.391 42.234zm-344.39-42.234c2.625-15.703 21.375-38.531 56.391-57.234v99.469c-20.766-10.312-59.766-22.312-56.391-42.234z"/></svg>