<?xml version="1.0" encoding="UTF-8"?>
<svg width="1200pt" height="1200pt" version="1.1" viewBox="0 0 1200 1200" xmlns="http://www.w3.org/2000/svg">
 <path d="m600 68.398c-314.4 0-570 226.8-570 506.4 0 100.8 33.602 194.4 90 273.6l-30 259.2c-2.3984 16.801 15.602 30 31.199 22.801l223.2-102c76.801 33.602 163.2 52.801 254.4 52.801 314.4 0 570-226.8 570-506.4 1.2031-279.6-254.4-506.4-568.8-506.4zm-272.4 586.8c-44.398 0-81.602-36-81.602-81.602 0-44.398 36-81.602 81.602-81.602 44.398 0 81.602 36 81.602 81.602-1.2031 45.602-37.203 81.602-81.602 81.602zm272.4 0c-44.398 0-81.602-36-81.602-81.602 0-44.398 36-81.602 81.602-81.602s81.602 36 81.602 81.602c0 45.602-37.203 81.602-81.602 81.602zm272.4 0c-44.398 0-81.602-36-81.602-81.602 0-44.398 36-81.602 81.602-81.602 44.398 0 81.602 36 81.602 81.602 0 45.602-36 81.602-81.602 81.602z"/>
</svg>
