<svg width="1600" height="1600" viewBox="0 0 1200 1200" xmlns="http://www.w3.org/2000/svg"><path d="M656.25 178.71h56.25v17.578h-56.25zM731.25 178.71H750v17.578h-18.75zM450 1003.7h56.25v17.578H450zM525 1003.7h18.75v17.578H525zM993.75 684.96h37.5v17.578h-37.5zM150 497.46h37.5v17.578H150z"/><path d="M1057.86 225.358l137.574-4.893-.899-21.51-141.513 5.037c-8.29-16.515-26.356-28.01-47.273-28.01h-166.94c-24.713 0-45.46 16.029-50.774 37.452l-202.453 7.204c-19.43.674-38.442-6.214-52.17-18.942l-.465-.43c-17.6-16.3-41.014-25.283-65.913-25.283h-34.228l5.253-126.574-23.226-.832-5.283 127.406H195.448l-5.283-127.406-23.226.832 5.439 131.055c-17.834 7.677-30.245 24.409-30.245 43.78v20.62h95.29v21.524h-95.29v61.703h95.29v21.524h-95.29v29.229c0 22.887 17.307 42.101 40.44 47.022l7.778 187.492c.744 17.98-6.709 35.586-20.453 48.314l-.465.43c-17.6 16.3-27.3 37.984-27.3 61.043v31.683L5.459 749.964l-.9 21.509 137.574 4.893v198.291L4.56 979.551l.899 21.509 141.513-5.037c8.29 16.516 26.357 28.01 47.274 28.01h166.939c24.713 0 45.46-16.028 50.774-37.452l202.453-7.203c19.415-.675 38.442 6.213 52.17 18.941l.465.43c17.6 16.3 41.014 25.284 65.913 25.284h34.212l-5.253 126.574 23.226.832 5.283-127.407h214.115l5.284 127.407 23.225-.832-5.438-131.056c17.833-7.677 30.245-24.409 30.245-43.78v-20.62h-95.29v-21.524h95.29v-61.702h-95.29V850.4h95.29v-29.23c0-22.886-17.308-42.1-40.44-47.022l-7.779-187.491c-.744-17.98 6.71-35.586 20.453-48.315l.465-.43c17.6-16.3 27.3-37.983 27.3-61.043v-31.697l136.675 4.864.898-21.51-137.573-4.892zm-696.672 777.15H314.13v-81.074H290.89v81.074h-51.132v-81.074h-23.241v81.074H194.25c-15.912 0-28.866-11.996-28.866-26.733V723.154c0-17.306 7.283-33.593 20.5-45.833l.464-.43c18.3-16.947 28.232-40.408 27.24-64.357l-7.7-185.422h193.223L391.8 603.216c-1.24 29.803 14.642 58.602 41.448 75.147 19.508 12.053 31.159 32.214 31.159 53.924v34.022l-62.303-2.21c-3.145-.114-6.229.976-8.506 3-2.278 2.023-3.564 4.835-3.564 7.748v200.924c.015 14.737-12.938 26.733-28.85 26.733zm304.09-260.03c-13.418 18.626-36.754 29.689-60.924 28.813l-116.689-4.147V732.29c0-28.929-15.525-55.79-41.51-71.833-20.127-12.426-32.041-34.037-31.112-56.421l4.478-108.065h37.636c31.237 0 60.241-14.378 77.565-38.442 13.417-18.64 36.737-29.66 60.923-28.814l116.688 4.147v34.855c0 28.928 15.526 55.79 41.51 71.833 20.128 12.426 32.042 34.036 31.113 56.421l-4.478 108.065h-37.636c-31.253 0-60.241 14.378-77.565 38.442zm369.339-265.625c0 17.305-7.283 33.592-20.5 45.832l-.464.43c-18.3 16.947-28.232 40.408-27.24 64.358l7.7 185.422h-193.25l7.313-176.104c1.24-29.804-14.642-58.602-41.448-75.147-19.507-12.054-31.158-32.215-31.158-53.925v-34.022l62.302 2.21c3.146.115 6.23-.976 8.507-3 2.278-2.022 3.564-4.835 3.564-7.748V224.235c0-14.736 12.953-26.733 28.866-26.733h47.056v81.074h23.242v-81.074h51.131v81.074h23.241v-81.074h22.266c15.913 0 28.866 11.996 28.866 26.733z"/></svg>