<svg width="1600" height="1600" viewBox="0 0 1200 1200" xmlns="http://www.w3.org/2000/svg"><path d="M521.84 865.07c-15.765-5.199-32.205-7.651-48.422-9.807-67.251-9.057-134.516-18.378-201.9-25.572-19.695-2.142-43.115-5.316-59.237 5.307-56.73 37.349-111.796 78.676-166.977 119.719 26.528 67.85 63.767 127.926 108.984 176.77 33.822-20.084 69.558-30.76 110.255-28.22 84.53 5.24 169.46.076 254.197 1.97 36.814.88 67.896-8.264 95.734-41.036 30.664-36.083 64.863-67.401 97.21-101.313 8.625-9.046 14.428-21.371 17.11-34.153 3.442-16.438 1.72-33.662-5.781-45.785-11.568-18.647-41.29-22.132-60.601-4.546-13.204 12.004-24.627 27.285-36.24 41.85a6.906 6.906 0 00-.23.278h-.017v.021c-41.814 52.427-88.02 85.79-151.257 73.303-12.014-2.347-24.01-4.169-35.852-6.485-19.848-3.858-39.26-9.099-57.543-20.596.463-5.55.88-11.105 1.352-16.645 0 0 .009 0 .016.01v-.03c28.764 3.9 57.44 8.145 86.2 11.637 14.548 1.866 29.466 4.971 43.8 3.067 15.018-1.992 27.204-13.01 33.925-27.78 3.03-6.73 4.958-14.223 5.488-21.992 1.901-27.843-10.54-43.556-30.226-49.975z"/><path d="M589.003 433.737c2.158-.287 4.418-.521 6.794-.697 50.097-3.69 87.998 23.807 92.907 26.848 84.224 52.486 23.266 267.212-60.83 286.773-20.547 4.789-35.253-3.748-80.386 3.35-45.133 7.097-56.712 19.765-77.708 21.51-83.463 6.95-209.912-167.296-140.665-255.086 3.924-4.966 31.553-41.8 79.08-53.572 35.317-8.721 46.327 5.013 93.054-1.96 45.617-6.77 55.38-22.865 87.754-27.166z" fill="red"/><path d="M228.109 55.712l-.124 76.81 114.245 47.694 80.71-5.814 208.845 106.403c-55.49 97.439-72.126 89.147-112.177 152.904L498.66 416.22c-5.729-13.061-22.922-45.587-58.37-58.217-16.803-6.017-37.142-5.49-56.002-2.48-31.434 5.017-58.76 16.93-58.76 16.93s28.946 39.267 73.745 55.26c35.248 12.609 77.918 1.712 94.47-3.47l20.866 17.393c-2.745 4.513-5.499 8.973-8.251 13.434 9.529-1.66 17.218-3.78 23.9-6.066 11.644-17.064 22.556-33.944 49.242-51.383 33.516-22.434 59.742-65.456 85.691-97.674l170.877 97.656 83.863 188.366c4.176 8.131 12.57 13.946 20.965 13.946 4.218 0 7.372 0 11.549-2.317 11.547-6.996 16.789-23.256 10.482-36.066l-52.413-122.095 201.26 112.784c3.153 2.316 7.371 3.497 11.548 3.497 9.418 0 18.877-5.814 23.095-15.125 6.265-13.945 1.023-31.388-11.549-38.383L697.704 254.57 529.98 167.36l177.142-17.443c16.788-1.136 30.424-18.577 29.36-37.2-1.025-18.623-15.725-33.75-33.538-32.568l-352.202 30.205z"/></svg>